<svg class="rich-terminal" viewBox="0 0 1482 1026.0" xmlns="http://www.w3.org/2000/svg">
    <!-- Generated with Rich https://www.textualize.io -->
    <style>

    @font-face {
        font-family: "Fira Code";
        src: local("FiraCode-Regular"),
                url("https://cdnjs.cloudflare.com/ajax/libs/firacode/6.2.0/woff2/FiraCode-Regular.woff2") format("woff2"),
                url("https://cdnjs.cloudflare.com/ajax/libs/firacode/6.2.0/woff/FiraCode-Regular.woff") format("woff");
        font-style: normal;
        font-weight: 400;
    }
    @font-face {
        font-family: "Fira Code";
        src: local("FiraCode-Bold"),
                url("https://cdnjs.cloudflare.com/ajax/libs/firacode/6.2.0/woff2/FiraCode-Bold.woff2") format("woff2"),
                url("https://cdnjs.cloudflare.com/ajax/libs/firacode/6.2.0/woff/FiraCode-Bold.woff") format("woff");
        font-style: bold;
        font-weight: 700;
    }

    .terminal-983511402-matrix {
        font-family: Fira Code, monospace;
        font-size: 20px;
        line-height: 24.4px;
        font-variant-east-asian: full-width;
    }

    .terminal-983511402-title {
        font-size: 18px;
        font-weight: bold;
        font-family: arial;
    }

    .terminal-983511402-r1 { fill: #c5c8c6 }
.terminal-983511402-r2 { fill: #42a5f5;font-weight: bold }
.terminal-983511402-r3 { fill: #e6e6e6;font-weight: bold }
.terminal-983511402-r4 { fill: #a7a7a7 }
.terminal-983511402-r5 { fill: #454545 }
.terminal-983511402-r6 { fill: #ffffff;font-weight: bold }
.terminal-983511402-r7 { fill: #ffa726;font-weight: bold }
.terminal-983511402-r8 { fill: #e6e6e6 }
.terminal-983511402-r9 { fill: #565656 }
    </style>

    <defs>
    <clipPath id="terminal-983511402-clip-terminal">
      <rect x="0" y="0" width="1463.0" height="975.0" />
    </clipPath>
    <clipPath id="terminal-983511402-line-0">
    <rect x="0" y="1.5" width="1464" height="24.65"/>
            </clipPath>
<clipPath id="terminal-983511402-line-1">
    <rect x="0" y="25.9" width="1464" height="24.65"/>
            </clipPath>
<clipPath id="terminal-983511402-line-2">
    <rect x="0" y="50.3" width="1464" height="24.65"/>
            </clipPath>
<clipPath id="terminal-983511402-line-3">
    <rect x="0" y="74.7" width="1464" height="24.65"/>
            </clipPath>
<clipPath id="terminal-983511402-line-4">
    <rect x="0" y="99.1" width="1464" height="24.65"/>
            </clipPath>
<clipPath id="terminal-983511402-line-5">
    <rect x="0" y="123.5" width="1464" height="24.65"/>
            </clipPath>
<clipPath id="terminal-983511402-line-6">
    <rect x="0" y="147.9" width="1464" height="24.65"/>
            </clipPath>
<clipPath id="terminal-983511402-line-7">
    <rect x="0" y="172.3" width="1464" height="24.65"/>
            </clipPath>
<clipPath id="terminal-983511402-line-8">
    <rect x="0" y="196.7" width="1464" height="24.65"/>
            </clipPath>
<clipPath id="terminal-983511402-line-9">
    <rect x="0" y="221.1" width="1464" height="24.65"/>
            </clipPath>
<clipPath id="terminal-983511402-line-10">
    <rect x="0" y="245.5" width="1464" height="24.65"/>
            </clipPath>
<clipPath id="terminal-983511402-line-11">
    <rect x="0" y="269.9" width="1464" height="24.65"/>
            </clipPath>
<clipPath id="terminal-983511402-line-12">
    <rect x="0" y="294.3" width="1464" height="24.65"/>
            </clipPath>
<clipPath id="terminal-983511402-line-13">
    <rect x="0" y="318.7" width="1464" height="24.65"/>
            </clipPath>
<clipPath id="terminal-983511402-line-14">
    <rect x="0" y="343.1" width="1464" height="24.65"/>
            </clipPath>
<clipPath id="terminal-983511402-line-15">
    <rect x="0" y="367.5" width="1464" height="24.65"/>
            </clipPath>
<clipPath id="terminal-983511402-line-16">
    <rect x="0" y="391.9" width="1464" height="24.65"/>
            </clipPath>
<clipPath id="terminal-983511402-line-17">
    <rect x="0" y="416.3" width="1464" height="24.65"/>
            </clipPath>
<clipPath id="terminal-983511402-line-18">
    <rect x="0" y="440.7" width="1464" height="24.65"/>
            </clipPath>
<clipPath id="terminal-983511402-line-19">
    <rect x="0" y="465.1" width="1464" height="24.65"/>
            </clipPath>
<clipPath id="terminal-983511402-line-20">
    <rect x="0" y="489.5" width="1464" height="24.65"/>
            </clipPath>
<clipPath id="terminal-983511402-line-21">
    <rect x="0" y="513.9" width="1464" height="24.65"/>
            </clipPath>
<clipPath id="terminal-983511402-line-22">
    <rect x="0" y="538.3" width="1464" height="24.65"/>
            </clipPath>
<clipPath id="terminal-983511402-line-23">
    <rect x="0" y="562.7" width="1464" height="24.65"/>
            </clipPath>
<clipPath id="terminal-983511402-line-24">
    <rect x="0" y="587.1" width="1464" height="24.65"/>
            </clipPath>
<clipPath id="terminal-983511402-line-25">
    <rect x="0" y="611.5" width="1464" height="24.65"/>
            </clipPath>
<clipPath id="terminal-983511402-line-26">
    <rect x="0" y="635.9" width="1464" height="24.65"/>
            </clipPath>
<clipPath id="terminal-983511402-line-27">
    <rect x="0" y="660.3" width="1464" height="24.65"/>
            </clipPath>
<clipPath id="terminal-983511402-line-28">
    <rect x="0" y="684.7" width="1464" height="24.65"/>
            </clipPath>
<clipPath id="terminal-983511402-line-29">
    <rect x="0" y="709.1" width="1464" height="24.65"/>
            </clipPath>
<clipPath id="terminal-983511402-line-30">
    <rect x="0" y="733.5" width="1464" height="24.65"/>
            </clipPath>
<clipPath id="terminal-983511402-line-31">
    <rect x="0" y="757.9" width="1464" height="24.65"/>
            </clipPath>
<clipPath id="terminal-983511402-line-32">
    <rect x="0" y="782.3" width="1464" height="24.65"/>
            </clipPath>
<clipPath id="terminal-983511402-line-33">
    <rect x="0" y="806.7" width="1464" height="24.65"/>
            </clipPath>
<clipPath id="terminal-983511402-line-34">
    <rect x="0" y="831.1" width="1464" height="24.65"/>
            </clipPath>
<clipPath id="terminal-983511402-line-35">
    <rect x="0" y="855.5" width="1464" height="24.65"/>
            </clipPath>
<clipPath id="terminal-983511402-line-36">
    <rect x="0" y="879.9" width="1464" height="24.65"/>
            </clipPath>
<clipPath id="terminal-983511402-line-37">
    <rect x="0" y="904.3" width="1464" height="24.65"/>
            </clipPath>
<clipPath id="terminal-983511402-line-38">
    <rect x="0" y="928.7" width="1464" height="24.65"/>
            </clipPath>
    </defs>

    <rect fill="#292929" stroke="rgba(255,255,255,0.35)" stroke-width="1" x="1" y="1" width="1480" height="1024" rx="8"/><text class="terminal-983511402-title" fill="#c5c8c6" text-anchor="middle" x="740" y="27">Anki&#160;Community&#160;Deck&#160;Sync</text>
            <g transform="translate(26,22)">
            <circle cx="0" cy="0" r="7" fill="#ff5f57"/>
            <circle cx="22" cy="0" r="7" fill="#febc2e"/>
            <circle cx="44" cy="0" r="7" fill="#28c840"/>
            </g>
        
    <g transform="translate(9, 41)" clip-path="url(#terminal-983511402-clip-terminal)">
    <rect fill="#273139" x="0" y="1.5" width="24.4" height="24.65" shape-rendering="crispEdges"/><rect fill="#273139" x="24.4" y="1.5" width="1049.2" height="24.65" shape-rendering="crispEdges"/><rect fill="#273139" x="1073.6" y="1.5" width="12.2" height="24.65" shape-rendering="crispEdges"/><rect fill="#333333" x="1085.8" y="1.5" width="24.4" height="24.65" shape-rendering="crispEdges"/><rect fill="#333333" x="1110.2" y="1.5" width="122" height="24.65" shape-rendering="crispEdges"/><rect fill="#333333" x="1232.2" y="1.5" width="24.4" height="24.65" shape-rendering="crispEdges"/><rect fill="#273139" x="1256.6" y="1.5" width="12.2" height="24.65" shape-rendering="crispEdges"/><rect fill="#333333" x="1268.8" y="1.5" width="24.4" height="24.65" shape-rendering="crispEdges"/><rect fill="#333333" x="1293.2" y="1.5" width="122" height="24.65" shape-rendering="crispEdges"/><rect fill="#333333" x="1415.2" y="1.5" width="24.4" height="24.65" shape-rendering="crispEdges"/><rect fill="#273139" x="1439.6" y="1.5" width="24.4" height="24.65" shape-rendering="crispEdges"/><rect fill="#273139" x="0" y="25.9" width="24.4" height="24.65" shape-rendering="crispEdges"/><rect fill="#273139" x="24.4" y="25.9" width="292.8" height="24.65" shape-rendering="crispEdges"/><rect fill="#273139" x="317.2" y="25.9" width="756.4" height="24.65" shape-rendering="crispEdges"/><rect fill="#273139" x="1073.6" y="25.9" width="12.2" height="24.65" shape-rendering="crispEdges"/><rect fill="#333333" x="1085.8" y="25.9" width="48.8" height="24.65" shape-rendering="crispEdges"/><rect fill="#333333" x="1134.6" y="25.9" width="73.2" height="24.65" shape-rendering="crispEdges"/><rect fill="#333333" x="1207.8" y="25.9" width="48.8" height="24.65" shape-rendering="crispEdges"/><rect fill="#273139" x="1256.6" y="25.9" width="12.2" height="24.65" shape-rendering="crispEdges"/><rect fill="#333333" x="1268.8" y="25.9" width="24.4" height="24.65" shape-rendering="crispEdges"/><rect fill="#333333" x="1293.2" y="25.9" width="122" height="24.65" shape-rendering="crispEdges"/><rect fill="#333333" x="1415.2" y="25.9" width="24.4" height="24.65" shape-rendering="crispEdges"/><rect fill="#273139" x="1439.6" y="25.9" width="24.4" height="24.65" shape-rendering="crispEdges"/><rect fill="#273139" x="0" y="50.3" width="24.4" height="24.65" shape-rendering="crispEdges"/><rect fill="#273139" x="24.4" y="50.3" width="1049.2" height="24.65" shape-rendering="crispEdges"/><rect fill="#273139" x="1073.6" y="50.3" width="12.2" height="24.65" shape-rendering="crispEdges"/><rect fill="#333333" x="1085.8" y="50.3" width="24.4" height="24.65" shape-rendering="crispEdges"/><rect fill="#333333" x="1110.2" y="50.3" width="122" height="24.65" shape-rendering="crispEdges"/><rect fill="#333333" x="1232.2" y="50.3" width="24.4" height="24.65" shape-rendering="crispEdges"/><rect fill="#273139" x="1256.6" y="50.3" width="12.2" height="24.65" shape-rendering="crispEdges"/><rect fill="#333333" x="1268.8" y="50.3" width="24.4" height="24.65" shape-rendering="crispEdges"/><rect fill="#333333" x="1293.2" y="50.3" width="122" height="24.65" shape-rendering="crispEdges"/><rect fill="#333333" x="1415.2" y="50.3" width="24.4" height="24.65" shape-rendering="crispEdges"/><rect fill="#273139" x="1439.6" y="50.3" width="24.4" height="24.65" shape-rendering="crispEdges"/><rect fill="#252525" x="0" y="74.7" width="1464" height="24.65" shape-rendering="crispEdges"/><rect fill="#252525" x="0" y="99.1" width="24.4" height="24.65" shape-rendering="crispEdges"/><rect fill="#252525" x="24.4" y="99.1" width="244" height="24.65" shape-rendering="crispEdges"/><rect fill="#252525" x="268.4" y="99.1" width="988.2" height="24.65" shape-rendering="crispEdges"/><rect fill="#333333" x="1256.6" y="99.1" width="24.4" height="24.65" shape-rendering="crispEdges"/><rect fill="#333333" x="1281" y="99.1" width="134.2" height="24.65" shape-rendering="crispEdges"/><rect fill="#333333" x="1415.2" y="99.1" width="24.4" height="24.65" shape-rendering="crispEdges"/><rect fill="#252525" x="1439.6" y="99.1" width="24.4" height="24.65" shape-rendering="crispEdges"/><rect fill="#252525" x="0" y="123.5" width="1256.6" height="24.65" shape-rendering="crispEdges"/><rect fill="#333333" x="1256.6" y="123.5" width="24.4" height="24.65" shape-rendering="crispEdges"/><rect fill="#333333" x="1281" y="123.5" width="134.2" height="24.65" shape-rendering="crispEdges"/><rect fill="#333333" x="1415.2" y="123.5" width="24.4" height="24.65" shape-rendering="crispEdges"/><rect fill="#252525" x="1439.6" y="123.5" width="24.4" height="24.65" shape-rendering="crispEdges"/><rect fill="#252525" x="0" y="147.9" width="24.4" height="24.65" shape-rendering="crispEdges"/><rect fill="#252525" x="24.4" y="147.9" width="305" height="24.65" shape-rendering="crispEdges"/><rect fill="#252525" x="329.4" y="147.9" width="927.2" height="24.65" shape-rendering="crispEdges"/><rect fill="#333333" x="1256.6" y="147.9" width="24.4" height="24.65" shape-rendering="crispEdges"/><rect fill="#333333" x="1281" y="147.9" width="134.2" height="24.65" shape-rendering="crispEdges"/><rect fill="#333333" x="1415.2" y="147.9" width="24.4" height="24.65" shape-rendering="crispEdges"/><rect fill="#252525" x="1439.6" y="147.9" width="24.4" height="24.65" shape-rendering="crispEdges"/><rect fill="#252525" x="0" y="172.3" width="1464" height="24.65" shape-rendering="crispEdges"/><rect fill="#252525" x="0" y="196.7" width="24.4" height="24.65" shape-rendering="crispEdges"/><rect fill="#252525" x="24.4" y="196.7" width="1415.2" height="24.65" shape-rendering="crispEdges"/><rect fill="#252525" x="1439.6" y="196.7" width="24.4" height="24.65" shape-rendering="crispEdges"/><rect fill="#252525" x="0" y="221.1" width="24.4" height="24.65" shape-rendering="crispEdges"/><rect fill="#252525" x="24.4" y="221.1" width="12.2" height="24.65" shape-rendering="crispEdges"/><rect fill="#252525" x="36.6" y="221.1" width="1390.8" height="24.65" shape-rendering="crispEdges"/><rect fill="#252525" x="1427.4" y="221.1" width="12.2" height="24.65" shape-rendering="crispEdges"/><rect fill="#252525" x="1439.6" y="221.1" width="24.4" height="24.65" shape-rendering="crispEdges"/><rect fill="#252525" x="0" y="245.5" width="24.4" height="24.65" shape-rendering="crispEdges"/><rect fill="#252525" x="24.4" y="245.5" width="12.2" height="24.65" shape-rendering="crispEdges"/><rect fill="#252525" x="36.6" y="245.5" width="24.4" height="24.65" shape-rendering="crispEdges"/><rect fill="#252525" x="61" y="245.5" width="85.4" height="24.65" shape-rendering="crispEdges"/><rect fill="#252525" x="146.4" y="245.5" width="1134.6" height="24.65" shape-rendering="crispEdges"/><rect fill="#42a5f5" x="1281" y="245.5" width="24.4" height="24.65" shape-rendering="crispEdges"/><rect fill="#42a5f5" x="1305.4" y="245.5" width="73.2" height="24.65" shape-rendering="crispEdges"/><rect fill="#42a5f5" x="1378.6" y="245.5" width="24.4" height="24.65" shape-rendering="crispEdges"/><rect fill="#252525" x="1403" y="245.5" width="24.4" height="24.65" shape-rendering="crispEdges"/><rect fill="#252525" x="1427.4" y="245.5" width="12.2" height="24.65" shape-rendering="crispEdges"/><rect fill="#252525" x="1439.6" y="245.5" width="24.4" height="24.65" shape-rendering="crispEdges"/><rect fill="#252525" x="0" y="269.9" width="24.4" height="24.65" shape-rendering="crispEdges"/><rect fill="#252525" x="24.4" y="269.9" width="12.2" height="24.65" shape-rendering="crispEdges"/><rect fill="#252525" x="36.6" y="269.9" width="1244.4" height="24.65" shape-rendering="crispEdges"/><rect fill="#42a5f5" x="1281" y="269.9" width="24.4" height="24.65" shape-rendering="crispEdges"/><rect fill="#42a5f5" x="1305.4" y="269.9" width="73.2" height="24.65" shape-rendering="crispEdges"/><rect fill="#42a5f5" x="1378.6" y="269.9" width="24.4" height="24.65" shape-rendering="crispEdges"/><rect fill="#252525" x="1403" y="269.9" width="24.4" height="24.65" shape-rendering="crispEdges"/><rect fill="#252525" x="1427.4" y="269.9" width="12.2" height="24.65" shape-rendering="crispEdges"/><rect fill="#252525" x="1439.6" y="269.9" width="24.4" height="24.65" shape-rendering="crispEdges"/><rect fill="#252525" x="0" y="294.3" width="24.4" height="24.65" shape-rendering="crispEdges"/><rect fill="#252525" x="24.4" y="294.3" width="12.2" height="24.65" shape-rendering="crispEdges"/><rect fill="#252525" x="36.6" y="294.3" width="24.4" height="24.65" shape-rendering="crispEdges"/><rect fill="#252525" x="61" y="294.3" width="585.6" height="24.65" shape-rendering="crispEdges"/><rect fill="#252525" x="646.6" y="294.3" width="634.4" height="24.65" shape-rendering="crispEdges"/><rect fill="#42a5f5" x="1281" y="294.3" width="24.4" height="24.65" shape-rendering="crispEdges"/><rect fill="#42a5f5" x="1305.4" y="294.3" width="73.2" height="24.65" shape-rendering="crispEdges"/><rect fill="#42a5f5" x="1378.6" y="294.3" width="24.4" height="24.65" shape-rendering="crispEdges"/><rect fill="#252525" x="1403" y="294.3" width="24.4" height="24.65" shape-rendering="crispEdges"/><rect fill="#252525" x="1427.4" y="294.3" width="12.2" height="24.65" shape-rendering="crispEdges"/><rect fill="#252525" x="1439.6" y="294.3" width="24.4" height="24.65" shape-rendering="crispEdges"/><rect fill="#252525" x="0" y="318.7" width="24.4" height="24.65" shape-rendering="crispEdges"/><rect fill="#252525" x="24.4" y="318.7" width="12.2" height="24.65" shape-rendering="crispEdges"/><rect fill="#252525" x="36.6" y="318.7" width="1390.8" height="24.65" shape-rendering="crispEdges"/><rect fill="#252525" x="1427.4" y="318.7" width="12.2" height="24.65" shape-rendering="crispEdges"/><rect fill="#252525" x="1439.6" y="318.7" width="24.4" height="24.65" shape-rendering="crispEdges"/><rect fill="#252525" x="0" y="343.1" width="24.4" height="24.65" shape-rendering="crispEdges"/><rect fill="#252525" x="24.4" y="343.1" width="1415.2" height="24.65" shape-rendering="crispEdges"/><rect fill="#252525" x="1439.6" y="343.1" width="24.4" height="24.65" shape-rendering="crispEdges"/><rect fill="#252525" x="0" y="367.5" width="1464" height="24.65" shape-rendering="crispEdges"/><rect fill="#252525" x="0" y="391.9" width="24.4" height="24.65" shape-rendering="crispEdges"/><rect fill="#252525" x="24.4" y="391.9" width="1415.2" height="24.65" shape-rendering="crispEdges"/><rect fill="#252525" x="1439.6" y="391.9" width="24.4" height="24.65" shape-rendering="crispEdges"/><rect fill="#252525" x="0" y="416.3" width="24.4" height="24.65" shape-rendering="crispEdges"/><rect fill="#252525" x="24.4" y="416.3" width="12.2" height="24.65" shape-rendering="crispEdges"/><rect fill="#252525" x="36.6" y="416.3" width="1390.8" height="24.65" shape-rendering="crispEdges"/><rect fill="#252525" x="1427.4" y="416.3" width="12.2" height="24.65" shape-rendering="crispEdges"/><rect fill="#252525" x="1439.6" y="416.3" width="24.4" height="24.65" shape-rendering="crispEdges"/><rect fill="#252525" x="0" y="440.7" width="24.4" height="24.65" shape-rendering="crispEdges"/><rect fill="#252525" x="24.4" y="440.7" width="12.2" height="24.65" shape-rendering="crispEdges"/><rect fill="#252525" x="36.6" y="440.7" width="24.4" height="24.65" shape-rendering="crispEdges"/><rect fill="#252525" x="61" y="440.7" width="183" height="24.65" shape-rendering="crispEdges"/><rect fill="#252525" x="244" y="440.7" width="1037" height="24.65" shape-rendering="crispEdges"/><rect fill="#42a5f5" x="1281" y="440.7" width="24.4" height="24.65" shape-rendering="crispEdges"/><rect fill="#42a5f5" x="1305.4" y="440.7" width="73.2" height="24.65" shape-rendering="crispEdges"/><rect fill="#42a5f5" x="1378.6" y="440.7" width="24.4" height="24.65" shape-rendering="crispEdges"/><rect fill="#252525" x="1403" y="440.7" width="24.4" height="24.65" shape-rendering="crispEdges"/><rect fill="#252525" x="1427.4" y="440.7" width="12.2" height="24.65" shape-rendering="crispEdges"/><rect fill="#252525" x="1439.6" y="440.7" width="24.4" height="24.65" shape-rendering="crispEdges"/><rect fill="#252525" x="0" y="465.1" width="24.4" height="24.65" shape-rendering="crispEdges"/><rect fill="#252525" x="24.4" y="465.1" width="12.2" height="24.65" shape-rendering="crispEdges"/><rect fill="#252525" x="36.6" y="465.1" width="1244.4" height="24.65" shape-rendering="crispEdges"/><rect fill="#42a5f5" x="1281" y="465.1" width="24.4" height="24.65" shape-rendering="crispEdges"/><rect fill="#42a5f5" x="1305.4" y="465.1" width="73.2" height="24.65" shape-rendering="crispEdges"/><rect fill="#42a5f5" x="1378.6" y="465.1" width="24.4" height="24.65" shape-rendering="crispEdges"/><rect fill="#252525" x="1403" y="465.1" width="24.4" height="24.65" shape-rendering="crispEdges"/><rect fill="#252525" x="1427.4" y="465.1" width="12.2" height="24.65" shape-rendering="crispEdges"/><rect fill="#252525" x="1439.6" y="465.1" width="24.4" height="24.65" shape-rendering="crispEdges"/><rect fill="#252525" x="0" y="489.5" width="24.4" height="24.65" shape-rendering="crispEdges"/><rect fill="#252525" x="24.4" y="489.5" width="12.2" height="24.65" shape-rendering="crispEdges"/><rect fill="#252525" x="36.6" y="489.5" width="24.4" height="24.65" shape-rendering="crispEdges"/><rect fill="#252525" x="61" y="489.5" width="463.6" height="24.65" shape-rendering="crispEdges"/><rect fill="#252525" x="524.6" y="489.5" width="756.4" height="24.65" shape-rendering="crispEdges"/><rect fill="#42a5f5" x="1281" y="489.5" width="24.4" height="24.65" shape-rendering="crispEdges"/><rect fill="#42a5f5" x="1305.4" y="489.5" width="73.2" height="24.65" shape-rendering="crispEdges"/><rect fill="#42a5f5" x="1378.6" y="489.5" width="24.4" height="24.65" shape-rendering="crispEdges"/><rect fill="#252525" x="1403" y="489.5" width="24.4" height="24.65" shape-rendering="crispEdges"/><rect fill="#252525" x="1427.4" y="489.5" width="12.2" height="24.65" shape-rendering="crispEdges"/><rect fill="#252525" x="1439.6" y="489.5" width="24.4" height="24.65" shape-rendering="crispEdges"/><rect fill="#252525" x="0" y="513.9" width="24.4" height="24.65" shape-rendering="crispEdges"/><rect fill="#252525" x="24.4" y="513.9" width="12.2" height="24.65" shape-rendering="crispEdges"/><rect fill="#252525" x="36.6" y="513.9" width="1390.8" height="24.65" shape-rendering="crispEdges"/><rect fill="#252525" x="1427.4" y="513.9" width="12.2" height="24.65" shape-rendering="crispEdges"/><rect fill="#252525" x="1439.6" y="513.9" width="24.4" height="24.65" shape-rendering="crispEdges"/><rect fill="#252525" x="0" y="538.3" width="24.4" height="24.65" shape-rendering="crispEdges"/><rect fill="#252525" x="24.4" y="538.3" width="1415.2" height="24.65" shape-rendering="crispEdges"/><rect fill="#252525" x="1439.6" y="538.3" width="24.4" height="24.65" shape-rendering="crispEdges"/><rect fill="#252525" x="0" y="562.7" width="1464" height="24.65" shape-rendering="crispEdges"/><rect fill="#252525" x="0" y="587.1" width="24.4" height="24.65" shape-rendering="crispEdges"/><rect fill="#252525" x="24.4" y="587.1" width="1415.2" height="24.65" shape-rendering="crispEdges"/><rect fill="#252525" x="1439.6" y="587.1" width="24.4" height="24.65" shape-rendering="crispEdges"/><rect fill="#252525" x="0" y="611.5" width="24.4" height="24.65" shape-rendering="crispEdges"/><rect fill="#252525" x="24.4" y="611.5" width="12.2" height="24.65" shape-rendering="crispEdges"/><rect fill="#252525" x="36.6" y="611.5" width="1390.8" height="24.65" shape-rendering="crispEdges"/><rect fill="#252525" x="1427.4" y="611.5" width="12.2" height="24.65" shape-rendering="crispEdges"/><rect fill="#252525" x="1439.6" y="611.5" width="24.4" height="24.65" shape-rendering="crispEdges"/><rect fill="#252525" x="0" y="635.9" width="24.4" height="24.65" shape-rendering="crispEdges"/><rect fill="#252525" x="24.4" y="635.9" width="12.2" height="24.65" shape-rendering="crispEdges"/><rect fill="#252525" x="36.6" y="635.9" width="24.4" height="24.65" shape-rendering="crispEdges"/><rect fill="#252525" x="61" y="635.9" width="158.6" height="24.65" shape-rendering="crispEdges"/><rect fill="#252525" x="219.6" y="635.9" width="1061.4" height="24.65" shape-rendering="crispEdges"/><rect fill="#42a5f5" x="1281" y="635.9" width="24.4" height="24.65" shape-rendering="crispEdges"/><rect fill="#42a5f5" x="1305.4" y="635.9" width="73.2" height="24.65" shape-rendering="crispEdges"/><rect fill="#42a5f5" x="1378.6" y="635.9" width="24.4" height="24.65" shape-rendering="crispEdges"/><rect fill="#252525" x="1403" y="635.9" width="24.4" height="24.65" shape-rendering="crispEdges"/><rect fill="#252525" x="1427.4" y="635.9" width="12.2" height="24.65" shape-rendering="crispEdges"/><rect fill="#252525" x="1439.6" y="635.9" width="24.4" height="24.65" shape-rendering="crispEdges"/><rect fill="#252525" x="0" y="660.3" width="24.4" height="24.65" shape-rendering="crispEdges"/><rect fill="#252525" x="24.4" y="660.3" width="12.2" height="24.65" shape-rendering="crispEdges"/><rect fill="#252525" x="36.6" y="660.3" width="1244.4" height="24.65" shape-rendering="crispEdges"/><rect fill="#42a5f5" x="1281" y="660.3" width="24.4" height="24.65" shape-rendering="crispEdges"/><rect fill="#42a5f5" x="1305.4" y="660.3" width="73.2" height="24.65" shape-rendering="crispEdges"/><rect fill="#42a5f5" x="1378.6" y="660.3" width="24.4" height="24.65" shape-rendering="crispEdges"/><rect fill="#252525" x="1403" y="660.3" width="24.4" height="24.65" shape-rendering="crispEdges"/><rect fill="#252525" x="1427.4" y="660.3" width="12.2" height="24.65" shape-rendering="crispEdges"/><rect fill="#252525" x="1439.6" y="660.3" width="24.4" height="24.65" shape-rendering="crispEdges"/><rect fill="#252525" x="0" y="684.7" width="24.4" height="24.65" shape-rendering="crispEdges"/><rect fill="#252525" x="24.4" y="684.7" width="12.2" height="24.65" shape-rendering="crispEdges"/><rect fill="#252525" x="36.6" y="684.7" width="24.4" height="24.65" shape-rendering="crispEdges"/><rect fill="#252525" x="61" y="684.7" width="219.6" height="24.65" shape-rendering="crispEdges"/><rect fill="#252525" x="280.6" y="684.7" width="1000.4" height="24.65" shape-rendering="crispEdges"/><rect fill="#42a5f5" x="1281" y="684.7" width="24.4" height="24.65" shape-rendering="crispEdges"/><rect fill="#42a5f5" x="1305.4" y="684.7" width="73.2" height="24.65" shape-rendering="crispEdges"/><rect fill="#42a5f5" x="1378.6" y="684.7" width="24.4" height="24.65" shape-rendering="crispEdges"/><rect fill="#252525" x="1403" y="684.7" width="24.4" height="24.65" shape-rendering="crispEdges"/><rect fill="#252525" x="1427.4" y="684.7" width="12.2" height="24.65" shape-rendering="crispEdges"/><rect fill="#252525" x="1439.6" y="684.7" width="24.4" height="24.65" shape-rendering="crispEdges"/><rect fill="#252525" x="0" y="709.1" width="24.4" height="24.65" shape-rendering="crispEdges"/><rect fill="#252525" x="24.4" y="709.1" width="12.2" height="24.65" shape-rendering="crispEdges"/><rect fill="#252525" x="36.6" y="709.1" width="1390.8" height="24.65" shape-rendering="crispEdges"/><rect fill="#252525" x="1427.4" y="709.1" width="12.2" height="24.65" shape-rendering="crispEdges"/><rect fill="#252525" x="1439.6" y="709.1" width="24.4" height="24.65" shape-rendering="crispEdges"/><rect fill="#252525" x="0" y="733.5" width="24.4" height="24.65" shape-rendering="crispEdges"/><rect fill="#252525" x="24.4" y="733.5" width="1415.2" height="24.65" shape-rendering="crispEdges"/><rect fill="#252525" x="1439.6" y="733.5" width="24.4" height="24.65" shape-rendering="crispEdges"/><rect fill="#252525" x="0" y="757.9" width="1464" height="24.65" shape-rendering="crispEdges"/><rect fill="#252525" x="0" y="782.3" width="1464" height="24.65" shape-rendering="crispEdges"/><rect fill="#252525" x="0" y="806.7" width="536.8" height="24.65" shape-rendering="crispEdges"/><rect fill="#42a5f5" x="536.8" y="806.7" width="24.4" height="24.65" shape-rendering="crispEdges"/><rect fill="#42a5f5" x="561.2" y="806.7" width="341.6" height="24.65" shape-rendering="crispEdges"/><rect fill="#42a5f5" x="902.8" y="806.7" width="24.4" height="24.65" shape-rendering="crispEdges"/><rect fill="#252525" x="927.2" y="806.7" width="536.8" height="24.65" shape-rendering="crispEdges"/><rect fill="#252525" x="0" y="831.1" width="536.8" height="24.65" shape-rendering="crispEdges"/><rect fill="#42a5f5" x="536.8" y="831.1" width="24.4" height="24.65" shape-rendering="crispEdges"/><rect fill="#42a5f5" x="561.2" y="831.1" width="341.6" height="24.65" shape-rendering="crispEdges"/><rect fill="#42a5f5" x="902.8" y="831.1" width="24.4" height="24.65" shape-rendering="crispEdges"/><rect fill="#252525" x="927.2" y="831.1" width="536.8" height="24.65" shape-rendering="crispEdges"/><rect fill="#252525" x="0" y="855.5" width="536.8" height="24.65" shape-rendering="crispEdges"/><rect fill="#42a5f5" x="536.8" y="855.5" width="24.4" height="24.65" shape-rendering="crispEdges"/><rect fill="#42a5f5" x="561.2" y="855.5" width="341.6" height="24.65" shape-rendering="crispEdges"/><rect fill="#42a5f5" x="902.8" y="855.5" width="24.4" height="24.65" shape-rendering="crispEdges"/><rect fill="#252525" x="927.2" y="855.5" width="536.8" height="24.65" shape-rendering="crispEdges"/><rect fill="#252525" x="0" y="879.9" width="1464" height="24.65" shape-rendering="crispEdges"/><rect fill="#252525" x="0" y="904.3" width="1464" height="24.65" shape-rendering="crispEdges"/><rect fill="#252525" x="0" y="928.7" width="1464" height="24.65" shape-rendering="crispEdges"/><rect fill="#333333" x="0" y="953.1" width="36.6" height="24.65" shape-rendering="crispEdges"/><rect fill="#333333" x="36.6" y="953.1" width="61" height="24.65" shape-rendering="crispEdges"/><rect fill="#333333" x="97.6" y="953.1" width="1220" height="24.65" shape-rendering="crispEdges"/><rect fill="#333333" x="1317.6" y="953.1" width="12.2" height="24.65" shape-rendering="crispEdges"/><rect fill="#333333" x="1329.8" y="953.1" width="24.4" height="24.65" shape-rendering="crispEdges"/><rect fill="#333333" x="1354.2" y="953.1" width="97.6" height="24.65" shape-rendering="crispEdges"/><rect fill="#333333" x="1451.8" y="953.1" width="12.2" height="24.65" shape-rendering="crispEdges"/>
    <g class="terminal-983511402-matrix">
    <text class="terminal-983511402-r1" x="1464" y="20" textLength="12.2" clip-path="url(#terminal-983511402-line-0)">
</text><text class="terminal-983511402-r2" x="24.4" y="44.4" textLength="292.8" clip-path="url(#terminal-983511402-line-1)">Anki&#160;Community&#160;Deck&#160;Sync</text><text class="terminal-983511402-r3" x="1134.6" y="44.4" textLength="73.2" clip-path="url(#terminal-983511402-line-1)">&#160;Help&#160;</text><text class="terminal-983511402-r3" x="1293.2" y="44.4" textLength="122" clip-path="url(#terminal-983511402-line-1)">&#160;Settings&#160;</text><text class="terminal-983511402-r1" x="1464" y="44.4" textLength="12.2" clip-path="url(#terminal-983511402-line-1)">
</text><text class="terminal-983511402-r1" x="1464" y="68.8" textLength="12.2" clip-path="url(#terminal-983511402-line-2)">
</text><text class="terminal-983511402-r1" x="1464" y="93.2" textLength="12.2" clip-path="url(#terminal-983511402-line-3)">
</text><text class="terminal-983511402-r3" x="24.4" y="117.6" textLength="244" clip-path="url(#terminal-983511402-line-4)">Your&#160;community&#160;decks</text><text class="terminal-983511402-r1" x="1464" y="117.6" textLength="12.2" clip-path="url(#terminal-983511402-line-4)">
</text><text class="terminal-983511402-r3" x="1281" y="142" textLength="134.2" clip-path="url(#terminal-983511402-line-5)">&#160;↻&#160;Refresh&#160;</text><text class="terminal-983511402-r1" x="1464" y="142" textLength="12.2" clip-path="url(#terminal-983511402-line-5)">
</text><text class="terminal-983511402-r4" x="24.4" y="166.4" textLength="305" clip-path="url(#terminal-983511402-line-6)">•&#160;Last&#160;refreshed&#160;just&#160;now</text><text class="terminal-983511402-r1" x="1464" y="166.4" textLength="12.2" clip-path="url(#terminal-983511402-line-6)">
</text><text class="terminal-983511402-r1" x="1464" y="190.8" textLength="12.2" clip-path="url(#terminal-983511402-line-7)">
</text><text class="terminal-983511402-r5" x="24.4" y="215.2" textLength="1415.2" clip-path="url(#terminal-983511402-line-8)">╭──────────────────────────────────────────────────────────────────────────────────────────────────────────────────╮</text><text class="terminal-983511402-r1" x="1464" y="215.2" textLength="12.2" clip-path="url(#terminal-983511402-line-8)">
</text><text class="terminal-983511402-r5" x="24.4" y="239.6" textLength="12.2" clip-path="url(#terminal-983511402-line-9)">│</text><text class="terminal-983511402-r5" x="1427.4" y="239.6" textLength="12.2" clip-path="url(#terminal-983511402-line-9)">│</text><text class="terminal-983511402-r1" x="1464" y="239.6" textLength="12.2" clip-path="url(#terminal-983511402-line-9)">
</text><text class="terminal-983511402-r5" x="24.4" y="264" textLength="12.2" clip-path="url(#terminal-983511402-line-10)">│</text><text class="terminal-983511402-r2" x="61" y="264" textLength="85.4" clip-path="url(#terminal-983511402-line-10)">JLPT&#160;N5</text><text class="terminal-983511402-r5" x="1427.4" y="264" textLength="12.2" clip-path="url(#terminal-983511402-line-10)">│</text><text class="terminal-983511402-r1" x="1464" y="264" textLength="12.2" clip-path="url(#terminal-983511402-line-10)">
</text><text class="terminal-983511402-r5" x="24.4" y="288.4" textLength="12.2" clip-path="url(#terminal-983511402-line-11)">│</text><text class="terminal-983511402-r6" x="1305.4" y="288.4" textLength="73.2" clip-path="url(#terminal-983511402-line-11)">&#160;Open&#160;</text><text class="terminal-983511402-r5" x="1427.4" y="288.4" textLength="12.2" clip-path="url(#terminal-983511402-line-11)">│</text><text class="terminal-983511402-r1" x="1464" y="288.4" textLength="12.2" clip-path="url(#terminal-983511402-line-11)">
</text><text class="terminal-983511402-r5" x="24.4" y="312.8" textLength="12.2" clip-path="url(#terminal-983511402-line-12)">│</text><text class="terminal-983511402-r4" x="61" y="312.8" textLength="585.6" clip-path="url(#terminal-983511402-line-12)">3&#160;updates&#160;available&#160;·&#160;last&#160;downloaded&#160;3&#160;days&#160;ago</text><text class="terminal-983511402-r5" x="1427.4" y="312.8" textLength="12.2" clip-path="url(#terminal-983511402-line-12)">│</text><text class="terminal-983511402-r1" x="1464" y="312.8" textLength="12.2" clip-path="url(#terminal-983511402-line-12)">
</text><text class="terminal-983511402-r5" x="24.4" y="337.2" textLength="12.2" clip-path="url(#terminal-983511402-line-13)">│</text><text class="terminal-983511402-r5" x="1427.4" y="337.2" textLength="12.2" clip-path="url(#terminal-983511402-line-13)">│</text><text class="terminal-983511402-r1" x="1464" y="337.2" textLength="12.2" clip-path="url(#terminal-983511402-line-13)">
</text><text class="terminal-983511402-r5" x="24.4" y="361.6" textLength="1415.2" clip-path="url(#terminal-983511402-line-14)">╰──────────────────────────────────────────────────────────────────────────────────────────────────────────────────╯</text><text class="terminal-983511402-r1" x="1464" y="361.6" textLength="12.2" clip-path="url(#terminal-983511402-line-14)">
</text><text class="terminal-983511402-r1" x="1464" y="386" textLength="12.2" clip-path="url(#terminal-983511402-line-15)">
</text><text class="terminal-983511402-r5" x="24.4" y="410.4" textLength="1415.2" clip-path="url(#terminal-983511402-line-16)">╭──────────────────────────────────────────────────────────────────────────────────────────────────────────────────╮</text><text class="terminal-983511402-r1" x="1464" y="410.4" textLength="12.2" clip-path="url(#terminal-983511402-line-16)">
</text><text class="terminal-983511402-r5" x="24.4" y="434.8" textLength="12.2" clip-path="url(#terminal-983511402-line-17)">│</text><text class="terminal-983511402-r5" x="1427.4" y="434.8" textLength="12.2" clip-path="url(#terminal-983511402-line-17)">│</text><text class="terminal-983511402-r1" x="1464" y="434.8" textLength="12.2" clip-path="url(#terminal-983511402-line-17)">
</text><text class="terminal-983511402-r5" x="24.4" y="459.2" textLength="12.2" clip-path="url(#terminal-983511402-line-18)">│</text><text class="terminal-983511402-r2" x="61" y="459.2" textLength="183" clip-path="url(#terminal-983511402-line-18)">Medical&#160;Anatomy</text><text class="terminal-983511402-r5" x="1427.4" y="459.2" textLength="12.2" clip-path="url(#terminal-983511402-line-18)">│</text><text class="terminal-983511402-r1" x="1464" y="459.2" textLength="12.2" clip-path="url(#terminal-983511402-line-18)">
</text><text class="terminal-983511402-r5" x="24.4" y="483.6" textLength="12.2" clip-path="url(#terminal-983511402-line-19)">│</text><text class="terminal-983511402-r6" x="1305.4" y="483.6" textLength="73.2" clip-path="url(#terminal-983511402-line-19)">&#160;Open&#160;</text><text class="terminal-983511402-r5" x="1427.4" y="483.6" textLength="12.2" clip-path="url(#terminal-983511402-line-19)">│</text><text class="terminal-983511402-r1" x="1464" y="483.6" textLength="12.2" clip-path="url(#terminal-983511402-line-19)">
</text><text class="terminal-983511402-r5" x="24.4" y="508" textLength="12.2" clip-path="url(#terminal-983511402-line-20)">│</text><text class="terminal-983511402-r4" x="61" y="508" textLength="463.6" clip-path="url(#terminal-983511402-line-20)">Up&#160;to&#160;date&#160;·&#160;last&#160;downloaded&#160;1&#160;day&#160;ago</text><text class="terminal-983511402-r5" x="1427.4" y="508" textLength="12.2" clip-path="url(#terminal-983511402-line-20)">│</text><text class="terminal-983511402-r1" x="1464" y="508" textLength="12.2" clip-path="url(#terminal-983511402-line-20)">
</text><text class="terminal-983511402-r5" x="24.4" y="532.4" textLength="12.2" clip-path="url(#terminal-983511402-line-21)">│</text><text class="terminal-983511402-r5" x="1427.4" y="532.4" textLength="12.2" clip-path="url(#terminal-983511402-line-21)">│</text><text class="terminal-983511402-r1" x="1464" y="532.4" textLength="12.2" clip-path="url(#terminal-983511402-line-21)">
</text><text class="terminal-983511402-r5" x="24.4" y="556.8" textLength="1415.2" clip-path="url(#terminal-983511402-line-22)">╰──────────────────────────────────────────────────────────────────────────────────────────────────────────────────╯</text><text class="terminal-983511402-r1" x="1464" y="556.8" textLength="12.2" clip-path="url(#terminal-983511402-line-22)">
</text><text class="terminal-983511402-r1" x="1464" y="581.2" textLength="12.2" clip-path="url(#terminal-983511402-line-23)">
</text><text class="terminal-983511402-r5" x="24.4" y="605.6" textLength="1415.2" clip-path="url(#terminal-983511402-line-24)">╭──────────────────────────────────────────────────────────────────────────────────────────────────────────────────╮</text><text class="terminal-983511402-r1" x="1464" y="605.6" textLength="12.2" clip-path="url(#terminal-983511402-line-24)">
</text><text class="terminal-983511402-r5" x="24.4" y="630" textLength="12.2" clip-path="url(#terminal-983511402-line-25)">│</text><text class="terminal-983511402-r5" x="1427.4" y="630" textLength="12.2" clip-path="url(#terminal-983511402-line-25)">│</text><text class="terminal-983511402-r1" x="1464" y="630" textLength="12.2" clip-path="url(#terminal-983511402-line-25)">
</text><text class="terminal-983511402-r5" x="24.4" y="654.4" textLength="12.2" clip-path="url(#terminal-983511402-line-26)">│</text><text class="terminal-983511402-r2" x="61" y="654.4" textLength="158.6" clip-path="url(#terminal-983511402-line-26)">Chinese&#160;HSK&#160;1</text><text class="terminal-983511402-r5" x="1427.4" y="654.4" textLength="12.2" clip-path="url(#terminal-983511402-line-26)">│</text><text class="terminal-983511402-r1" x="1464" y="654.4" textLength="12.2" clip-path="url(#terminal-983511402-line-26)">
</text><text class="terminal-983511402-r5" x="24.4" y="678.8" textLength="12.2" clip-path="url(#terminal-983511402-line-27)">│</text><text class="terminal-983511402-r6" x="1305.4" y="678.8" textLength="73.2" clip-path="url(#terminal-983511402-line-27)">&#160;Open&#160;</text><text class="terminal-983511402-r5" x="1427.4" y="678.8" textLength="12.2" clip-path="url(#terminal-983511402-line-27)">│</text><text class="terminal-983511402-r1" x="1464" y="678.8" textLength="12.2" clip-path="url(#terminal-983511402-line-27)">
</text><text class="terminal-983511402-r5" x="24.4" y="703.2" textLength="12.2" clip-path="url(#terminal-983511402-line-28)">│</text><text class="terminal-983511402-r4" x="61" y="703.2" textLength="219.6" clip-path="url(#terminal-983511402-line-28)">Not&#160;downloaded&#160;yet</text><text class="terminal-983511402-r5" x="1427.4" y="703.2" textLength="12.2" clip-path="url(#terminal-983511402-line-28)">│</text><text class="terminal-983511402-r1" x="1464" y="703.2" textLength="12.2" clip-path="url(#terminal-983511402-line-28)">
</text><text class="terminal-983511402-r5" x="24.4" y="727.6" textLength="12.2" clip-path="url(#terminal-983511402-line-29)">│</text><text class="terminal-983511402-r5" x="1427.4" y="727.6" textLength="12.2" clip-path="url(#terminal-983511402-line-29)">│</text><text class="terminal-983511402-r1" x="1464" y="727.6" textLength="12.2" clip-path="url(#terminal-983511402-line-29)">
</text><text class="terminal-983511402-r5" x="24.4" y="752" textLength="1415.2" clip-path="url(#terminal-983511402-line-30)">╰──────────────────────────────────────────────────────────────────────────────────────────────────────────────────╯</text><text class="terminal-983511402-r1" x="1464" y="752" textLength="12.2" clip-path="url(#terminal-983511402-line-30)">
</text><text class="terminal-983511402-r1" x="1464" y="776.4" textLength="12.2" clip-path="url(#terminal-983511402-line-31)">
</text><text class="terminal-983511402-r1" x="1464" y="800.8" textLength="12.2" clip-path="url(#terminal-983511402-line-32)">
</text><text class="terminal-983511402-r1" x="1464" y="825.2" textLength="12.2" clip-path="url(#terminal-983511402-line-33)">
</text><text class="terminal-983511402-r6" x="561.2" y="849.6" textLength="341.6" clip-path="url(#terminal-983511402-line-34)">&#160;+&#160;Add&#160;a&#160;new&#160;community&#160;deck&#160;</text><text class="terminal-983511402-r1" x="1464" y="849.6" textLength="12.2" clip-path="url(#terminal-983511402-line-34)">
</text><text class="terminal-983511402-r1" x="1464" y="874" textLength="12.2" clip-path="url(#terminal-983511402-line-35)">
</text><text class="terminal-983511402-r1" x="1464" y="898.4" textLength="12.2" clip-path="url(#terminal-983511402-line-36)">
</text><text class="terminal-983511402-r1" x="1464" y="922.8" textLength="12.2" clip-path="url(#terminal-983511402-line-37)">
</text><text class="terminal-983511402-r1" x="1464" y="947.2" textLength="12.2" clip-path="url(#terminal-983511402-line-38)">
</text><text class="terminal-983511402-r7" x="0" y="971.6" textLength="36.6" clip-path="url(#terminal-983511402-line-39)">&#160;q&#160;</text><text class="terminal-983511402-r8" x="36.6" y="971.6" textLength="61" clip-path="url(#terminal-983511402-line-39)">Quit&#160;</text><text class="terminal-983511402-r9" x="1317.6" y="971.6" textLength="12.2" clip-path="url(#terminal-983511402-line-39)">▏</text><text class="terminal-983511402-r7" x="1329.8" y="971.6" textLength="24.4" clip-path="url(#terminal-983511402-line-39)">^p</text><text class="terminal-983511402-r8" x="1354.2" y="971.6" textLength="97.6" clip-path="url(#terminal-983511402-line-39)">&#160;palette</text>
    </g>
    </g>
</svg>
