<svg class="rich-terminal" viewBox="0 0 1482 1026.0" xmlns="http://www.w3.org/2000/svg">
    <!-- Generated with Rich https://www.textualize.io -->
    <style>

    @font-face {
        font-family: "Fira Code";
        src: local("FiraCode-Regular"),
                url("https://cdnjs.cloudflare.com/ajax/libs/firacode/6.2.0/woff2/FiraCode-Regular.woff2") format("woff2"),
                url("https://cdnjs.cloudflare.com/ajax/libs/firacode/6.2.0/woff/FiraCode-Regular.woff") format("woff");
        font-style: normal;
        font-weight: 400;
    }
    @font-face {
        font-family: "Fira Code";
        src: local("FiraCode-Bold"),
                url("https://cdnjs.cloudflare.com/ajax/libs/firacode/6.2.0/woff2/FiraCode-Bold.woff2") format("woff2"),
                url("https://cdnjs.cloudflare.com/ajax/libs/firacode/6.2.0/woff/FiraCode-Bold.woff") format("woff");
        font-style: bold;
        font-weight: 700;
    }

    .terminal-matrix {
        font-family: Fira Code, monospace;
        font-size: 20px;
        line-height: 24.4px;
        font-variant-east-asian: full-width;
    }

    .terminal-title {
        font-size: 18px;
        font-weight: bold;
        font-family: arial;
    }

    .terminal-r1 { fill: #c5c8c6 }
.terminal-r2 { fill: #969696 }
.terminal-r3 { fill: #969696;font-weight: bold }
.terminal-r4 { fill: #e6e6e6 }
.terminal-r5 { fill: #a3a3a3 }
.terminal-r6 { fill: #e6e6e6;font-weight: bold }
.terminal-r7 { fill: #ffffff;font-weight: bold }
    </style>

    <defs>
    <clipPath id="terminal-clip-terminal">
      <rect x="0" y="0" width="1463.0" height="975.0" />
    </clipPath>
    <clipPath id="terminal-line-0">
    <rect x="0" y="1.5" width="1464" height="24.65"/>
            </clipPath>
<clipPath id="terminal-line-1">
    <rect x="0" y="25.9" width="1464" height="24.65"/>
            </clipPath>
<clipPath id="terminal-line-2">
    <rect x="0" y="50.3" width="1464" height="24.65"/>
            </clipPath>
<clipPath id="terminal-line-3">
    <rect x="0" y="74.7" width="1464" height="24.65"/>
            </clipPath>
<clipPath id="terminal-line-4">
    <rect x="0" y="99.1" width="1464" height="24.65"/>
            </clipPath>
<clipPath id="terminal-line-5">
    <rect x="0" y="123.5" width="1464" height="24.65"/>
            </clipPath>
<clipPath id="terminal-line-6">
    <rect x="0" y="147.9" width="1464" height="24.65"/>
            </clipPath>
<clipPath id="terminal-line-7">
    <rect x="0" y="172.3" width="1464" height="24.65"/>
            </clipPath>
<clipPath id="terminal-line-8">
    <rect x="0" y="196.7" width="1464" height="24.65"/>
            </clipPath>
<clipPath id="terminal-line-9">
    <rect x="0" y="221.1" width="1464" height="24.65"/>
            </clipPath>
<clipPath id="terminal-line-10">
    <rect x="0" y="245.5" width="1464" height="24.65"/>
            </clipPath>
<clipPath id="terminal-line-11">
    <rect x="0" y="269.9" width="1464" height="24.65"/>
            </clipPath>
<clipPath id="terminal-line-12">
    <rect x="0" y="294.3" width="1464" height="24.65"/>
            </clipPath>
<clipPath id="terminal-line-13">
    <rect x="0" y="318.7" width="1464" height="24.65"/>
            </clipPath>
<clipPath id="terminal-line-14">
    <rect x="0" y="343.1" width="1464" height="24.65"/>
            </clipPath>
<clipPath id="terminal-line-15">
    <rect x="0" y="367.5" width="1464" height="24.65"/>
            </clipPath>
<clipPath id="terminal-line-16">
    <rect x="0" y="391.9" width="1464" height="24.65"/>
            </clipPath>
<clipPath id="terminal-line-17">
    <rect x="0" y="416.3" width="1464" height="24.65"/>
            </clipPath>
<clipPath id="terminal-line-18">
    <rect x="0" y="440.7" width="1464" height="24.65"/>
            </clipPath>
<clipPath id="terminal-line-19">
    <rect x="0" y="465.1" width="1464" height="24.65"/>
            </clipPath>
<clipPath id="terminal-line-20">
    <rect x="0" y="489.5" width="1464" height="24.65"/>
            </clipPath>
<clipPath id="terminal-line-21">
    <rect x="0" y="513.9" width="1464" height="24.65"/>
            </clipPath>
<clipPath id="terminal-line-22">
    <rect x="0" y="538.3" width="1464" height="24.65"/>
            </clipPath>
<clipPath id="terminal-line-23">
    <rect x="0" y="562.7" width="1464" height="24.65"/>
            </clipPath>
<clipPath id="terminal-line-24">
    <rect x="0" y="587.1" width="1464" height="24.65"/>
            </clipPath>
<clipPath id="terminal-line-25">
    <rect x="0" y="611.5" width="1464" height="24.65"/>
            </clipPath>
<clipPath id="terminal-line-26">
    <rect x="0" y="635.9" width="1464" height="24.65"/>
            </clipPath>
<clipPath id="terminal-line-27">
    <rect x="0" y="660.3" width="1464" height="24.65"/>
            </clipPath>
<clipPath id="terminal-line-28">
    <rect x="0" y="684.7" width="1464" height="24.65"/>
            </clipPath>
<clipPath id="terminal-line-29">
    <rect x="0" y="709.1" width="1464" height="24.65"/>
            </clipPath>
<clipPath id="terminal-line-30">
    <rect x="0" y="733.5" width="1464" height="24.65"/>
            </clipPath>
<clipPath id="terminal-line-31">
    <rect x="0" y="757.9" width="1464" height="24.65"/>
            </clipPath>
<clipPath id="terminal-line-32">
    <rect x="0" y="782.3" width="1464" height="24.65"/>
            </clipPath>
<clipPath id="terminal-line-33">
    <rect x="0" y="806.7" width="1464" height="24.65"/>
            </clipPath>
<clipPath id="terminal-line-34">
    <rect x="0" y="831.1" width="1464" height="24.65"/>
            </clipPath>
<clipPath id="terminal-line-35">
    <rect x="0" y="855.5" width="1464" height="24.65"/>
            </clipPath>
<clipPath id="terminal-line-36">
    <rect x="0" y="879.9" width="1464" height="24.65"/>
            </clipPath>
<clipPath id="terminal-line-37">
    <rect x="0" y="904.3" width="1464" height="24.65"/>
            </clipPath>
<clipPath id="terminal-line-38">
    <rect x="0" y="928.7" width="1464" height="24.65"/>
            </clipPath>
    </defs>

    <rect fill="#292929" stroke="rgba(255,255,255,0.35)" stroke-width="1" x="1" y="1" width="1480" height="1024" rx="8"/><text class="terminal-title" fill="#c5c8c6" text-anchor="middle" x="740" y="27">Anki&#160;Deck&#160;Sync</text>
            <g transform="translate(26,22)">
            <circle cx="0" cy="0" r="7" fill="#ff5f57"/>
            <circle cx="22" cy="0" r="7" fill="#febc2e"/>
            <circle cx="44" cy="0" r="7" fill="#28c840"/>
            </g>
        
    <g transform="translate(9, 41)" clip-path="url(#terminal-clip-terminal)">
    <rect fill="#252525" x="0" y="1.5" width="1464" height="24.65" shape-rendering="crispEdges"/><rect fill="#252525" x="0" y="25.9" width="1464" height="24.65" shape-rendering="crispEdges"/><rect fill="#252525" x="0" y="50.3" width="1464" height="24.65" shape-rendering="crispEdges"/><rect fill="#252525" x="0" y="74.7" width="1464" height="24.65" shape-rendering="crispEdges"/><rect fill="#252525" x="0" y="99.1" width="1464" height="24.65" shape-rendering="crispEdges"/><rect fill="#252525" x="0" y="123.5" width="1464" height="24.65" shape-rendering="crispEdges"/><rect fill="#252525" x="0" y="147.9" width="1464" height="24.65" shape-rendering="crispEdges"/><rect fill="#252525" x="0" y="172.3" width="1464" height="24.65" shape-rendering="crispEdges"/><rect fill="#252525" x="0" y="196.7" width="1464" height="24.65" shape-rendering="crispEdges"/><rect fill="#252525" x="0" y="221.1" width="1464" height="24.65" shape-rendering="crispEdges"/><rect fill="#252525" x="0" y="245.5" width="244" height="24.65" shape-rendering="crispEdges"/><rect fill="#252525" x="244" y="245.5" width="976" height="24.65" shape-rendering="crispEdges"/><rect fill="#252525" x="1220" y="245.5" width="244" height="24.65" shape-rendering="crispEdges"/><rect fill="#252525" x="0" y="269.9" width="244" height="24.65" shape-rendering="crispEdges"/><rect fill="#252525" x="244" y="269.9" width="12.2" height="24.65" shape-rendering="crispEdges"/><rect fill="#252525" x="256.2" y="269.9" width="951.6" height="24.65" shape-rendering="crispEdges"/><rect fill="#252525" x="1207.8" y="269.9" width="12.2" height="24.65" shape-rendering="crispEdges"/><rect fill="#252525" x="1220" y="269.9" width="244" height="24.65" shape-rendering="crispEdges"/><rect fill="#252525" x="0" y="294.3" width="244" height="24.65" shape-rendering="crispEdges"/><rect fill="#252525" x="244" y="294.3" width="12.2" height="24.65" shape-rendering="crispEdges"/><rect fill="#252525" x="256.2" y="294.3" width="951.6" height="24.65" shape-rendering="crispEdges"/><rect fill="#252525" x="1207.8" y="294.3" width="12.2" height="24.65" shape-rendering="crispEdges"/><rect fill="#252525" x="1220" y="294.3" width="244" height="24.65" shape-rendering="crispEdges"/><rect fill="#252525" x="0" y="318.7" width="244" height="24.65" shape-rendering="crispEdges"/><rect fill="#252525" x="244" y="318.7" width="12.2" height="24.65" shape-rendering="crispEdges"/><rect fill="#252525" x="256.2" y="318.7" width="317.2" height="24.65" shape-rendering="crispEdges"/><rect fill="#252525" x="573.4" y="318.7" width="305" height="24.65" shape-rendering="crispEdges"/><rect fill="#252525" x="878.4" y="318.7" width="329.4" height="24.65" shape-rendering="crispEdges"/><rect fill="#252525" x="1207.8" y="318.7" width="12.2" height="24.65" shape-rendering="crispEdges"/><rect fill="#252525" x="1220" y="318.7" width="244" height="24.65" shape-rendering="crispEdges"/><rect fill="#252525" x="0" y="343.1" width="244" height="24.65" shape-rendering="crispEdges"/><rect fill="#252525" x="244" y="343.1" width="12.2" height="24.65" shape-rendering="crispEdges"/><rect fill="#252525" x="256.2" y="343.1" width="951.6" height="24.65" shape-rendering="crispEdges"/><rect fill="#252525" x="1207.8" y="343.1" width="12.2" height="24.65" shape-rendering="crispEdges"/><rect fill="#252525" x="1220" y="343.1" width="244" height="24.65" shape-rendering="crispEdges"/><rect fill="#252525" x="0" y="367.5" width="244" height="24.65" shape-rendering="crispEdges"/><rect fill="#252525" x="244" y="367.5" width="12.2" height="24.65" shape-rendering="crispEdges"/><rect fill="#252525" x="256.2" y="367.5" width="48.8" height="24.65" shape-rendering="crispEdges"/><rect fill="#252525" x="305" y="367.5" width="854" height="24.65" shape-rendering="crispEdges"/><rect fill="#252525" x="1159" y="367.5" width="48.8" height="24.65" shape-rendering="crispEdges"/><rect fill="#252525" x="1207.8" y="367.5" width="12.2" height="24.65" shape-rendering="crispEdges"/><rect fill="#252525" x="1220" y="367.5" width="244" height="24.65" shape-rendering="crispEdges"/><rect fill="#252525" x="0" y="391.9" width="244" height="24.65" shape-rendering="crispEdges"/><rect fill="#252525" x="244" y="391.9" width="12.2" height="24.65" shape-rendering="crispEdges"/><rect fill="#252525" x="256.2" y="391.9" width="48.8" height="24.65" shape-rendering="crispEdges"/><rect fill="#252525" x="305" y="391.9" width="488" height="24.65" shape-rendering="crispEdges"/><rect fill="#252525" x="793" y="391.9" width="414.8" height="24.65" shape-rendering="crispEdges"/><rect fill="#252525" x="1207.8" y="391.9" width="12.2" height="24.65" shape-rendering="crispEdges"/><rect fill="#252525" x="1220" y="391.9" width="244" height="24.65" shape-rendering="crispEdges"/><rect fill="#252525" x="0" y="416.3" width="244" height="24.65" shape-rendering="crispEdges"/><rect fill="#252525" x="244" y="416.3" width="12.2" height="24.65" shape-rendering="crispEdges"/><rect fill="#252525" x="256.2" y="416.3" width="951.6" height="24.65" shape-rendering="crispEdges"/><rect fill="#252525" x="1207.8" y="416.3" width="12.2" height="24.65" shape-rendering="crispEdges"/><rect fill="#252525" x="1220" y="416.3" width="244" height="24.65" shape-rendering="crispEdges"/><rect fill="#252525" x="0" y="440.7" width="244" height="24.65" shape-rendering="crispEdges"/><rect fill="#252525" x="244" y="440.7" width="12.2" height="24.65" shape-rendering="crispEdges"/><rect fill="#252525" x="256.2" y="440.7" width="48.8" height="24.65" shape-rendering="crispEdges"/><rect fill="#252525" x="305" y="440.7" width="671" height="24.65" shape-rendering="crispEdges"/><rect fill="#252525" x="976" y="440.7" width="231.8" height="24.65" shape-rendering="crispEdges"/><rect fill="#252525" x="1207.8" y="440.7" width="12.2" height="24.65" shape-rendering="crispEdges"/><rect fill="#252525" x="1220" y="440.7" width="244" height="24.65" shape-rendering="crispEdges"/><rect fill="#252525" x="0" y="465.1" width="244" height="24.65" shape-rendering="crispEdges"/><rect fill="#252525" x="244" y="465.1" width="12.2" height="24.65" shape-rendering="crispEdges"/><rect fill="#252525" x="256.2" y="465.1" width="48.8" height="24.65" shape-rendering="crispEdges"/><rect fill="#252525" x="305" y="465.1" width="219.6" height="24.65" shape-rendering="crispEdges"/><rect fill="#252525" x="524.6" y="465.1" width="683.2" height="24.65" shape-rendering="crispEdges"/><rect fill="#252525" x="1207.8" y="465.1" width="12.2" height="24.65" shape-rendering="crispEdges"/><rect fill="#252525" x="1220" y="465.1" width="244" height="24.65" shape-rendering="crispEdges"/><rect fill="#252525" x="0" y="489.5" width="244" height="24.65" shape-rendering="crispEdges"/><rect fill="#252525" x="244" y="489.5" width="12.2" height="24.65" shape-rendering="crispEdges"/><rect fill="#252525" x="256.2" y="489.5" width="48.8" height="24.65" shape-rendering="crispEdges"/><rect fill="#252525" x="305" y="489.5" width="488" height="24.65" shape-rendering="crispEdges"/><rect fill="#252525" x="793" y="489.5" width="414.8" height="24.65" shape-rendering="crispEdges"/><rect fill="#252525" x="1207.8" y="489.5" width="12.2" height="24.65" shape-rendering="crispEdges"/><rect fill="#252525" x="1220" y="489.5" width="244" height="24.65" shape-rendering="crispEdges"/><rect fill="#252525" x="0" y="513.9" width="244" height="24.65" shape-rendering="crispEdges"/><rect fill="#252525" x="244" y="513.9" width="12.2" height="24.65" shape-rendering="crispEdges"/><rect fill="#252525" x="256.2" y="513.9" width="48.8" height="24.65" shape-rendering="crispEdges"/><rect fill="#252525" x="305" y="513.9" width="512.4" height="24.65" shape-rendering="crispEdges"/><rect fill="#252525" x="817.4" y="513.9" width="390.4" height="24.65" shape-rendering="crispEdges"/><rect fill="#252525" x="1207.8" y="513.9" width="12.2" height="24.65" shape-rendering="crispEdges"/><rect fill="#252525" x="1220" y="513.9" width="244" height="24.65" shape-rendering="crispEdges"/><rect fill="#252525" x="0" y="538.3" width="244" height="24.65" shape-rendering="crispEdges"/><rect fill="#252525" x="244" y="538.3" width="12.2" height="24.65" shape-rendering="crispEdges"/><rect fill="#252525" x="256.2" y="538.3" width="48.8" height="24.65" shape-rendering="crispEdges"/><rect fill="#252525" x="305" y="538.3" width="0" height="24.65" shape-rendering="crispEdges"/><rect fill="#252525" x="305" y="538.3" width="902.8" height="24.65" shape-rendering="crispEdges"/><rect fill="#252525" x="1207.8" y="538.3" width="12.2" height="24.65" shape-rendering="crispEdges"/><rect fill="#252525" x="1220" y="538.3" width="244" height="24.65" shape-rendering="crispEdges"/><rect fill="#252525" x="0" y="562.7" width="244" height="24.65" shape-rendering="crispEdges"/><rect fill="#252525" x="244" y="562.7" width="12.2" height="24.65" shape-rendering="crispEdges"/><rect fill="#252525" x="256.2" y="562.7" width="951.6" height="24.65" shape-rendering="crispEdges"/><rect fill="#252525" x="1207.8" y="562.7" width="12.2" height="24.65" shape-rendering="crispEdges"/><rect fill="#252525" x="1220" y="562.7" width="244" height="24.65" shape-rendering="crispEdges"/><rect fill="#252525" x="0" y="587.1" width="244" height="24.65" shape-rendering="crispEdges"/><rect fill="#252525" x="244" y="587.1" width="12.2" height="24.65" shape-rendering="crispEdges"/><rect fill="#252525" x="256.2" y="587.1" width="256.2" height="24.65" shape-rendering="crispEdges"/><rect fill="#3b3b3b" x="512.4" y="587.1" width="24.4" height="24.65" shape-rendering="crispEdges"/><rect fill="#3b3b3b" x="536.8" y="587.1" width="158.6" height="24.65" shape-rendering="crispEdges"/><rect fill="#3b3b3b" x="695.4" y="587.1" width="24.4" height="24.65" shape-rendering="crispEdges"/><rect fill="#252525" x="719.8" y="587.1" width="12.2" height="24.65" shape-rendering="crispEdges"/><rect fill="#969696" x="732" y="587.1" width="24.4" height="24.65" shape-rendering="crispEdges"/><rect fill="#969696" x="756.4" y="587.1" width="158.6" height="24.65" shape-rendering="crispEdges"/><rect fill="#969696" x="915" y="587.1" width="24.4" height="24.65" shape-rendering="crispEdges"/><rect fill="#252525" x="939.4" y="587.1" width="268.4" height="24.65" shape-rendering="crispEdges"/><rect fill="#252525" x="1207.8" y="587.1" width="12.2" height="24.65" shape-rendering="crispEdges"/><rect fill="#252525" x="1220" y="587.1" width="244" height="24.65" shape-rendering="crispEdges"/><rect fill="#252525" x="0" y="611.5" width="244" height="24.65" shape-rendering="crispEdges"/><rect fill="#252525" x="244" y="611.5" width="12.2" height="24.65" shape-rendering="crispEdges"/><rect fill="#252525" x="256.2" y="611.5" width="256.2" height="24.65" shape-rendering="crispEdges"/><rect fill="#3b3b3b" x="512.4" y="611.5" width="24.4" height="24.65" shape-rendering="crispEdges"/><rect fill="#3b3b3b" x="536.8" y="611.5" width="158.6" height="24.65" shape-rendering="crispEdges"/><rect fill="#3b3b3b" x="695.4" y="611.5" width="24.4" height="24.65" shape-rendering="crispEdges"/><rect fill="#252525" x="719.8" y="611.5" width="12.2" height="24.65" shape-rendering="crispEdges"/><rect fill="#969696" x="732" y="611.5" width="24.4" height="24.65" shape-rendering="crispEdges"/><rect fill="#969696" x="756.4" y="611.5" width="158.6" height="24.65" shape-rendering="crispEdges"/><rect fill="#969696" x="915" y="611.5" width="24.4" height="24.65" shape-rendering="crispEdges"/><rect fill="#252525" x="939.4" y="611.5" width="268.4" height="24.65" shape-rendering="crispEdges"/><rect fill="#252525" x="1207.8" y="611.5" width="12.2" height="24.65" shape-rendering="crispEdges"/><rect fill="#252525" x="1220" y="611.5" width="244" height="24.65" shape-rendering="crispEdges"/><rect fill="#252525" x="0" y="635.9" width="244" height="24.65" shape-rendering="crispEdges"/><rect fill="#252525" x="244" y="635.9" width="12.2" height="24.65" shape-rendering="crispEdges"/><rect fill="#252525" x="256.2" y="635.9" width="256.2" height="24.65" shape-rendering="crispEdges"/><rect fill="#3b3b3b" x="512.4" y="635.9" width="24.4" height="24.65" shape-rendering="crispEdges"/><rect fill="#3b3b3b" x="536.8" y="635.9" width="158.6" height="24.65" shape-rendering="crispEdges"/><rect fill="#3b3b3b" x="695.4" y="635.9" width="24.4" height="24.65" shape-rendering="crispEdges"/><rect fill="#252525" x="719.8" y="635.9" width="12.2" height="24.65" shape-rendering="crispEdges"/><rect fill="#969696" x="732" y="635.9" width="24.4" height="24.65" shape-rendering="crispEdges"/><rect fill="#969696" x="756.4" y="635.9" width="158.6" height="24.65" shape-rendering="crispEdges"/><rect fill="#969696" x="915" y="635.9" width="24.4" height="24.65" shape-rendering="crispEdges"/><rect fill="#252525" x="939.4" y="635.9" width="268.4" height="24.65" shape-rendering="crispEdges"/><rect fill="#252525" x="1207.8" y="635.9" width="12.2" height="24.65" shape-rendering="crispEdges"/><rect fill="#252525" x="1220" y="635.9" width="244" height="24.65" shape-rendering="crispEdges"/><rect fill="#252525" x="0" y="660.3" width="244" height="24.65" shape-rendering="crispEdges"/><rect fill="#252525" x="244" y="660.3" width="12.2" height="24.65" shape-rendering="crispEdges"/><rect fill="#252525" x="256.2" y="660.3" width="951.6" height="24.65" shape-rendering="crispEdges"/><rect fill="#252525" x="1207.8" y="660.3" width="12.2" height="24.65" shape-rendering="crispEdges"/><rect fill="#252525" x="1220" y="660.3" width="244" height="24.65" shape-rendering="crispEdges"/><rect fill="#252525" x="0" y="684.7" width="244" height="24.65" shape-rendering="crispEdges"/><rect fill="#252525" x="244" y="684.7" width="12.2" height="24.65" shape-rendering="crispEdges"/><rect fill="#252525" x="256.2" y="684.7" width="951.6" height="24.65" shape-rendering="crispEdges"/><rect fill="#252525" x="1207.8" y="684.7" width="12.2" height="24.65" shape-rendering="crispEdges"/><rect fill="#252525" x="1220" y="684.7" width="244" height="24.65" shape-rendering="crispEdges"/><rect fill="#252525" x="0" y="709.1" width="244" height="24.65" shape-rendering="crispEdges"/><rect fill="#252525" x="244" y="709.1" width="976" height="24.65" shape-rendering="crispEdges"/><rect fill="#252525" x="1220" y="709.1" width="244" height="24.65" shape-rendering="crispEdges"/><rect fill="#252525" x="0" y="733.5" width="1464" height="24.65" shape-rendering="crispEdges"/><rect fill="#252525" x="0" y="757.9" width="1464" height="24.65" shape-rendering="crispEdges"/><rect fill="#252525" x="0" y="782.3" width="1464" height="24.65" shape-rendering="crispEdges"/><rect fill="#252525" x="0" y="806.7" width="1464" height="24.65" shape-rendering="crispEdges"/><rect fill="#252525" x="0" y="831.1" width="1464" height="24.65" shape-rendering="crispEdges"/><rect fill="#252525" x="0" y="855.5" width="1464" height="24.65" shape-rendering="crispEdges"/><rect fill="#252525" x="0" y="879.9" width="1464" height="24.65" shape-rendering="crispEdges"/><rect fill="#252525" x="0" y="904.3" width="1464" height="24.65" shape-rendering="crispEdges"/><rect fill="#252525" x="0" y="928.7" width="1464" height="24.65" shape-rendering="crispEdges"/><rect fill="#252525" x="0" y="953.1" width="1464" height="24.65" shape-rendering="crispEdges"/>
    <g class="terminal-matrix">
    <text class="terminal-r1" x="1464" y="20" textLength="12.2" clip-path="url(#terminal-line-0)">
</text><text class="terminal-r1" x="1464" y="44.4" textLength="12.2" clip-path="url(#terminal-line-1)">
</text><text class="terminal-r1" x="1464" y="68.8" textLength="12.2" clip-path="url(#terminal-line-2)">
</text><text class="terminal-r1" x="1464" y="93.2" textLength="12.2" clip-path="url(#terminal-line-3)">
</text><text class="terminal-r1" x="1464" y="117.6" textLength="12.2" clip-path="url(#terminal-line-4)">
</text><text class="terminal-r1" x="1464" y="142" textLength="12.2" clip-path="url(#terminal-line-5)">
</text><text class="terminal-r1" x="1464" y="166.4" textLength="12.2" clip-path="url(#terminal-line-6)">
</text><text class="terminal-r1" x="1464" y="190.8" textLength="12.2" clip-path="url(#terminal-line-7)">
</text><text class="terminal-r1" x="1464" y="215.2" textLength="12.2" clip-path="url(#terminal-line-8)">
</text><text class="terminal-r1" x="1464" y="239.6" textLength="12.2" clip-path="url(#terminal-line-9)">
</text><text class="terminal-r2" x="244" y="264" textLength="976" clip-path="url(#terminal-line-10)">╭──────────────────────────────────────────────────────────────────────────────╮</text><text class="terminal-r1" x="1464" y="264" textLength="12.2" clip-path="url(#terminal-line-10)">
</text><text class="terminal-r2" x="244" y="288.4" textLength="12.2" clip-path="url(#terminal-line-11)">│</text><text class="terminal-r2" x="1207.8" y="288.4" textLength="12.2" clip-path="url(#terminal-line-11)">│</text><text class="terminal-r1" x="1464" y="288.4" textLength="12.2" clip-path="url(#terminal-line-11)">
</text><text class="terminal-r2" x="244" y="312.8" textLength="12.2" clip-path="url(#terminal-line-12)">│</text><text class="terminal-r2" x="1207.8" y="312.8" textLength="12.2" clip-path="url(#terminal-line-12)">│</text><text class="terminal-r1" x="1464" y="312.8" textLength="12.2" clip-path="url(#terminal-line-12)">
</text><text class="terminal-r2" x="244" y="337.2" textLength="12.2" clip-path="url(#terminal-line-13)">│</text><text class="terminal-r3" x="573.4" y="337.2" textLength="305" clip-path="url(#terminal-line-13)">Welcome&#160;to&#160;Anki&#160;Deck&#160;Sync</text><text class="terminal-r2" x="1207.8" y="337.2" textLength="12.2" clip-path="url(#terminal-line-13)">│</text><text class="terminal-r1" x="1464" y="337.2" textLength="12.2" clip-path="url(#terminal-line-13)">
</text><text class="terminal-r2" x="244" y="361.6" textLength="12.2" clip-path="url(#terminal-line-14)">│</text><text class="terminal-r2" x="1207.8" y="361.6" textLength="12.2" clip-path="url(#terminal-line-14)">│</text><text class="terminal-r1" x="1464" y="361.6" textLength="12.2" clip-path="url(#terminal-line-14)">
</text><text class="terminal-r2" x="244" y="386" textLength="12.2" clip-path="url(#terminal-line-15)">│</text><text class="terminal-r4" x="305" y="386" textLength="854" clip-path="url(#terminal-line-15)">Subscribe&#160;to&#160;Anki&#160;decks&#160;shared&#160;on&#160;GitHub.&#160;We&#160;download&#160;the&#160;deck&#160;for&#160;you</text><text class="terminal-r2" x="1207.8" y="386" textLength="12.2" clip-path="url(#terminal-line-15)">│</text><text class="terminal-r1" x="1464" y="386" textLength="12.2" clip-path="url(#terminal-line-15)">
</text><text class="terminal-r2" x="244" y="410.4" textLength="12.2" clip-path="url(#terminal-line-16)">│</text><text class="terminal-r4" x="305" y="410.4" textLength="488" clip-path="url(#terminal-line-16)">and&#160;prepare&#160;a&#160;file&#160;you&#160;can&#160;open&#160;in&#160;Anki.</text><text class="terminal-r2" x="1207.8" y="410.4" textLength="12.2" clip-path="url(#terminal-line-16)">│</text><text class="terminal-r1" x="1464" y="410.4" textLength="12.2" clip-path="url(#terminal-line-16)">
</text><text class="terminal-r2" x="244" y="434.8" textLength="12.2" clip-path="url(#terminal-line-17)">│</text><text class="terminal-r2" x="1207.8" y="434.8" textLength="12.2" clip-path="url(#terminal-line-17)">│</text><text class="terminal-r1" x="1464" y="434.8" textLength="12.2" clip-path="url(#terminal-line-17)">
</text><text class="terminal-r2" x="244" y="459.2" textLength="12.2" clip-path="url(#terminal-line-18)">│</text><text class="terminal-r4" x="305" y="459.2" textLength="671" clip-path="url(#terminal-line-18)">Before&#160;we&#160;start,&#160;here&#x27;s&#160;what&#160;we&#160;found&#160;on&#160;your&#160;computer:</text><text class="terminal-r2" x="1207.8" y="459.2" textLength="12.2" clip-path="url(#terminal-line-18)">│</text><text class="terminal-r1" x="1464" y="459.2" textLength="12.2" clip-path="url(#terminal-line-18)">
</text><text class="terminal-r2" x="244" y="483.6" textLength="12.2" clip-path="url(#terminal-line-19)">│</text><text class="terminal-r5" x="305" y="483.6" textLength="219.6" clip-path="url(#terminal-line-19)">&#160;&#160;✓&#160;&#160;Python&#160;3.13.0</text><text class="terminal-r2" x="1207.8" y="483.6" textLength="12.2" clip-path="url(#terminal-line-19)">│</text><text class="terminal-r1" x="1464" y="483.6" textLength="12.2" clip-path="url(#terminal-line-19)">
</text><text class="terminal-r2" x="244" y="508" textLength="12.2" clip-path="url(#terminal-line-20)">│</text><text class="terminal-r5" x="305" y="508" textLength="488" clip-path="url(#terminal-line-20)">&#160;&#160;✓&#160;&#160;Anki&#160;is&#160;installed&#160;(profile:&#160;User&#160;1)</text><text class="terminal-r2" x="1207.8" y="508" textLength="12.2" clip-path="url(#terminal-line-20)">│</text><text class="terminal-r1" x="1464" y="508" textLength="12.2" clip-path="url(#terminal-line-20)">
</text><text class="terminal-r2" x="244" y="532.4" textLength="12.2" clip-path="url(#terminal-line-21)">│</text><text class="terminal-r5" x="305" y="532.4" textLength="512.4" clip-path="url(#terminal-line-21)">&#160;&#160;✓&#160;&#160;git&#160;is&#160;installed&#160;(git&#160;version&#160;2.46.0)</text><text class="terminal-r2" x="1207.8" y="532.4" textLength="12.2" clip-path="url(#terminal-line-21)">│</text><text class="terminal-r1" x="1464" y="532.4" textLength="12.2" clip-path="url(#terminal-line-21)">
</text><text class="terminal-r2" x="244" y="556.8" textLength="12.2" clip-path="url(#terminal-line-22)">│</text><text class="terminal-r2" x="1207.8" y="556.8" textLength="12.2" clip-path="url(#terminal-line-22)">│</text><text class="terminal-r1" x="1464" y="556.8" textLength="12.2" clip-path="url(#terminal-line-22)">
</text><text class="terminal-r2" x="244" y="581.2" textLength="12.2" clip-path="url(#terminal-line-23)">│</text><text class="terminal-r2" x="1207.8" y="581.2" textLength="12.2" clip-path="url(#terminal-line-23)">│</text><text class="terminal-r1" x="1464" y="581.2" textLength="12.2" clip-path="url(#terminal-line-23)">
</text><text class="terminal-r2" x="244" y="605.6" textLength="12.2" clip-path="url(#terminal-line-24)">│</text><text class="terminal-r2" x="1207.8" y="605.6" textLength="12.2" clip-path="url(#terminal-line-24)">│</text><text class="terminal-r1" x="1464" y="605.6" textLength="12.2" clip-path="url(#terminal-line-24)">
</text><text class="terminal-r2" x="244" y="630" textLength="12.2" clip-path="url(#terminal-line-25)">│</text><text class="terminal-r6" x="536.8" y="630" textLength="158.6" clip-path="url(#terminal-line-25)">&#160;Check&#160;again&#160;</text><text class="terminal-r7" x="756.4" y="630" textLength="158.6" clip-path="url(#terminal-line-25)">&#160;Get&#160;started&#160;</text><text class="terminal-r2" x="1207.8" y="630" textLength="12.2" clip-path="url(#terminal-line-25)">│</text><text class="terminal-r1" x="1464" y="630" textLength="12.2" clip-path="url(#terminal-line-25)">
</text><text class="terminal-r2" x="244" y="654.4" textLength="12.2" clip-path="url(#terminal-line-26)">│</text><text class="terminal-r2" x="1207.8" y="654.4" textLength="12.2" clip-path="url(#terminal-line-26)">│</text><text class="terminal-r1" x="1464" y="654.4" textLength="12.2" clip-path="url(#terminal-line-26)">
</text><text class="terminal-r2" x="244" y="678.8" textLength="12.2" clip-path="url(#terminal-line-27)">│</text><text class="terminal-r2" x="1207.8" y="678.8" textLength="12.2" clip-path="url(#terminal-line-27)">│</text><text class="terminal-r1" x="1464" y="678.8" textLength="12.2" clip-path="url(#terminal-line-27)">
</text><text class="terminal-r2" x="244" y="703.2" textLength="12.2" clip-path="url(#terminal-line-28)">│</text><text class="terminal-r2" x="1207.8" y="703.2" textLength="12.2" clip-path="url(#terminal-line-28)">│</text><text class="terminal-r1" x="1464" y="703.2" textLength="12.2" clip-path="url(#terminal-line-28)">
</text><text class="terminal-r2" x="244" y="727.6" textLength="976" clip-path="url(#terminal-line-29)">╰──────────────────────────────────────────────────────────────────────────────╯</text><text class="terminal-r1" x="1464" y="727.6" textLength="12.2" clip-path="url(#terminal-line-29)">
</text><text class="terminal-r1" x="1464" y="752" textLength="12.2" clip-path="url(#terminal-line-30)">
</text><text class="terminal-r1" x="1464" y="776.4" textLength="12.2" clip-path="url(#terminal-line-31)">
</text><text class="terminal-r1" x="1464" y="800.8" textLength="12.2" clip-path="url(#terminal-line-32)">
</text><text class="terminal-r1" x="1464" y="825.2" textLength="12.2" clip-path="url(#terminal-line-33)">
</text><text class="terminal-r1" x="1464" y="849.6" textLength="12.2" clip-path="url(#terminal-line-34)">
</text><text class="terminal-r1" x="1464" y="874" textLength="12.2" clip-path="url(#terminal-line-35)">
</text><text class="terminal-r1" x="1464" y="898.4" textLength="12.2" clip-path="url(#terminal-line-36)">
</text><text class="terminal-r1" x="1464" y="922.8" textLength="12.2" clip-path="url(#terminal-line-37)">
</text><text class="terminal-r1" x="1464" y="947.2" textLength="12.2" clip-path="url(#terminal-line-38)">
</text>
    </g>
    </g>
</svg>
