<svg class="rich-terminal" viewBox="0 0 885 708.8" xmlns="http://www.w3.org/2000/svg">
    <!-- Generated with Rich https://www.textualize.io -->
    <style>

    @font-face {
        font-family: "Fira Code";
        src: local("FiraCode-Regular"),
                url("https://cdnjs.cloudflare.com/ajax/libs/firacode/6.2.0/woff2/FiraCode-Regular.woff2") format("woff2"),
                url("https://cdnjs.cloudflare.com/ajax/libs/firacode/6.2.0/woff/FiraCode-Regular.woff") format("woff");
        font-style: normal;
        font-weight: 400;
    }
    @font-face {
        font-family: "Fira Code";
        src: local("FiraCode-Bold"),
                url("https://cdnjs.cloudflare.com/ajax/libs/firacode/6.2.0/woff2/FiraCode-Bold.woff2") format("woff2"),
                url("https://cdnjs.cloudflare.com/ajax/libs/firacode/6.2.0/woff/FiraCode-Bold.woff") format("woff");
        font-style: bold;
        font-weight: 700;
    }

    .terminal-1630073799-matrix {
        font-family: Fira Code, monospace;
        font-size: 20px;
        line-height: 24.4px;
        font-variant-east-asian: full-width;
    }

    .terminal-1630073799-title {
        font-size: 18px;
        font-weight: bold;
        font-family: arial;
    }

    .terminal-1630073799-r1 { fill: #c5c8c6 }
.terminal-1630073799-r2 { fill: #42a5f5;font-weight: bold }
.terminal-1630073799-r3 { fill: #e6e6e6;font-weight: bold }
.terminal-1630073799-r4 { fill: #a7a7a7 }
.terminal-1630073799-r5 { fill: #454545 }
.terminal-1630073799-r6 { fill: #ffffff;font-weight: bold }
.terminal-1630073799-r7 { fill: #ffa726;font-weight: bold }
.terminal-1630073799-r8 { fill: #e6e6e6 }
.terminal-1630073799-r9 { fill: #565656 }
    </style>

    <defs>
    <clipPath id="terminal-1630073799-clip-terminal">
      <rect x="0" y="0" width="865.1999999999999" height="657.8" />
    </clipPath>
    <clipPath id="terminal-1630073799-line-0">
    <rect x="0" y="1.5" width="866.2" height="24.65"/>
            </clipPath>
<clipPath id="terminal-1630073799-line-1">
    <rect x="0" y="25.9" width="866.2" height="24.65"/>
            </clipPath>
<clipPath id="terminal-1630073799-line-2">
    <rect x="0" y="50.3" width="866.2" height="24.65"/>
            </clipPath>
<clipPath id="terminal-1630073799-line-3">
    <rect x="0" y="74.7" width="866.2" height="24.65"/>
            </clipPath>
<clipPath id="terminal-1630073799-line-4">
    <rect x="0" y="99.1" width="866.2" height="24.65"/>
            </clipPath>
<clipPath id="terminal-1630073799-line-5">
    <rect x="0" y="123.5" width="866.2" height="24.65"/>
            </clipPath>
<clipPath id="terminal-1630073799-line-6">
    <rect x="0" y="147.9" width="866.2" height="24.65"/>
            </clipPath>
<clipPath id="terminal-1630073799-line-7">
    <rect x="0" y="172.3" width="866.2" height="24.65"/>
            </clipPath>
<clipPath id="terminal-1630073799-line-8">
    <rect x="0" y="196.7" width="866.2" height="24.65"/>
            </clipPath>
<clipPath id="terminal-1630073799-line-9">
    <rect x="0" y="221.1" width="866.2" height="24.65"/>
            </clipPath>
<clipPath id="terminal-1630073799-line-10">
    <rect x="0" y="245.5" width="866.2" height="24.65"/>
            </clipPath>
<clipPath id="terminal-1630073799-line-11">
    <rect x="0" y="269.9" width="866.2" height="24.65"/>
            </clipPath>
<clipPath id="terminal-1630073799-line-12">
    <rect x="0" y="294.3" width="866.2" height="24.65"/>
            </clipPath>
<clipPath id="terminal-1630073799-line-13">
    <rect x="0" y="318.7" width="866.2" height="24.65"/>
            </clipPath>
<clipPath id="terminal-1630073799-line-14">
    <rect x="0" y="343.1" width="866.2" height="24.65"/>
            </clipPath>
<clipPath id="terminal-1630073799-line-15">
    <rect x="0" y="367.5" width="866.2" height="24.65"/>
            </clipPath>
<clipPath id="terminal-1630073799-line-16">
    <rect x="0" y="391.9" width="866.2" height="24.65"/>
            </clipPath>
<clipPath id="terminal-1630073799-line-17">
    <rect x="0" y="416.3" width="866.2" height="24.65"/>
            </clipPath>
<clipPath id="terminal-1630073799-line-18">
    <rect x="0" y="440.7" width="866.2" height="24.65"/>
            </clipPath>
<clipPath id="terminal-1630073799-line-19">
    <rect x="0" y="465.1" width="866.2" height="24.65"/>
            </clipPath>
<clipPath id="terminal-1630073799-line-20">
    <rect x="0" y="489.5" width="866.2" height="24.65"/>
            </clipPath>
<clipPath id="terminal-1630073799-line-21">
    <rect x="0" y="513.9" width="866.2" height="24.65"/>
            </clipPath>
<clipPath id="terminal-1630073799-line-22">
    <rect x="0" y="538.3" width="866.2" height="24.65"/>
            </clipPath>
<clipPath id="terminal-1630073799-line-23">
    <rect x="0" y="562.7" width="866.2" height="24.65"/>
            </clipPath>
<clipPath id="terminal-1630073799-line-24">
    <rect x="0" y="587.1" width="866.2" height="24.65"/>
            </clipPath>
<clipPath id="terminal-1630073799-line-25">
    <rect x="0" y="611.5" width="866.2" height="24.65"/>
            </clipPath>
    </defs>

    <rect fill="#292929" stroke="rgba(255,255,255,0.35)" stroke-width="1" x="1" y="1" width="883" height="706.8" rx="8"/><text class="terminal-1630073799-title" fill="#c5c8c6" text-anchor="middle" x="441" y="27">Anki&#160;Community&#160;Deck&#160;Sync</text>
            <g transform="translate(26,22)">
            <circle cx="0" cy="0" r="7" fill="#ff5f57"/>
            <circle cx="22" cy="0" r="7" fill="#febc2e"/>
            <circle cx="44" cy="0" r="7" fill="#28c840"/>
            </g>
        
    <g transform="translate(9, 41)" clip-path="url(#terminal-1630073799-clip-terminal)">
    <rect fill="#273139" x="0" y="1.5" width="24.4" height="24.65" shape-rendering="crispEdges"/><rect fill="#273139" x="24.4" y="1.5" width="451.4" height="24.65" shape-rendering="crispEdges"/><rect fill="#273139" x="475.8" y="1.5" width="12.2" height="24.65" shape-rendering="crispEdges"/><rect fill="#333333" x="488" y="1.5" width="24.4" height="24.65" shape-rendering="crispEdges"/><rect fill="#333333" x="512.4" y="1.5" width="122" height="24.65" shape-rendering="crispEdges"/><rect fill="#333333" x="634.4" y="1.5" width="24.4" height="24.65" shape-rendering="crispEdges"/><rect fill="#273139" x="658.8" y="1.5" width="12.2" height="24.65" shape-rendering="crispEdges"/><rect fill="#333333" x="671" y="1.5" width="24.4" height="24.65" shape-rendering="crispEdges"/><rect fill="#333333" x="695.4" y="1.5" width="122" height="24.65" shape-rendering="crispEdges"/><rect fill="#333333" x="817.4" y="1.5" width="24.4" height="24.65" shape-rendering="crispEdges"/><rect fill="#273139" x="841.8" y="1.5" width="24.4" height="24.65" shape-rendering="crispEdges"/><rect fill="#273139" x="0" y="25.9" width="24.4" height="24.65" shape-rendering="crispEdges"/><rect fill="#273139" x="24.4" y="25.9" width="292.8" height="24.65" shape-rendering="crispEdges"/><rect fill="#273139" x="317.2" y="25.9" width="158.6" height="24.65" shape-rendering="crispEdges"/><rect fill="#273139" x="475.8" y="25.9" width="12.2" height="24.65" shape-rendering="crispEdges"/><rect fill="#333333" x="488" y="25.9" width="24.4" height="24.65" shape-rendering="crispEdges"/><rect fill="#333333" x="512.4" y="25.9" width="24.4" height="24.65" shape-rendering="crispEdges"/><rect fill="#333333" x="536.8" y="25.9" width="73.2" height="24.65" shape-rendering="crispEdges"/><rect fill="#333333" x="610" y="25.9" width="24.4" height="24.65" shape-rendering="crispEdges"/><rect fill="#333333" x="634.4" y="25.9" width="24.4" height="24.65" shape-rendering="crispEdges"/><rect fill="#273139" x="658.8" y="25.9" width="12.2" height="24.65" shape-rendering="crispEdges"/><rect fill="#333333" x="671" y="25.9" width="24.4" height="24.65" shape-rendering="crispEdges"/><rect fill="#333333" x="695.4" y="25.9" width="122" height="24.65" shape-rendering="crispEdges"/><rect fill="#333333" x="817.4" y="25.9" width="24.4" height="24.65" shape-rendering="crispEdges"/><rect fill="#273139" x="841.8" y="25.9" width="24.4" height="24.65" shape-rendering="crispEdges"/><rect fill="#273139" x="0" y="50.3" width="24.4" height="24.65" shape-rendering="crispEdges"/><rect fill="#273139" x="24.4" y="50.3" width="451.4" height="24.65" shape-rendering="crispEdges"/><rect fill="#273139" x="475.8" y="50.3" width="12.2" height="24.65" shape-rendering="crispEdges"/><rect fill="#333333" x="488" y="50.3" width="24.4" height="24.65" shape-rendering="crispEdges"/><rect fill="#333333" x="512.4" y="50.3" width="122" height="24.65" shape-rendering="crispEdges"/><rect fill="#333333" x="634.4" y="50.3" width="24.4" height="24.65" shape-rendering="crispEdges"/><rect fill="#273139" x="658.8" y="50.3" width="12.2" height="24.65" shape-rendering="crispEdges"/><rect fill="#333333" x="671" y="50.3" width="24.4" height="24.65" shape-rendering="crispEdges"/><rect fill="#333333" x="695.4" y="50.3" width="122" height="24.65" shape-rendering="crispEdges"/><rect fill="#333333" x="817.4" y="50.3" width="24.4" height="24.65" shape-rendering="crispEdges"/><rect fill="#273139" x="841.8" y="50.3" width="24.4" height="24.65" shape-rendering="crispEdges"/><rect fill="#252525" x="0" y="74.7" width="866.2" height="24.65" shape-rendering="crispEdges"/><rect fill="#252525" x="0" y="99.1" width="24.4" height="24.65" shape-rendering="crispEdges"/><rect fill="#252525" x="24.4" y="99.1" width="244" height="24.65" shape-rendering="crispEdges"/><rect fill="#252525" x="268.4" y="99.1" width="390.4" height="24.65" shape-rendering="crispEdges"/><rect fill="#333333" x="658.8" y="99.1" width="24.4" height="24.65" shape-rendering="crispEdges"/><rect fill="#333333" x="683.2" y="99.1" width="134.2" height="24.65" shape-rendering="crispEdges"/><rect fill="#333333" x="817.4" y="99.1" width="24.4" height="24.65" shape-rendering="crispEdges"/><rect fill="#252525" x="841.8" y="99.1" width="24.4" height="24.65" shape-rendering="crispEdges"/><rect fill="#252525" x="0" y="123.5" width="24.4" height="24.65" shape-rendering="crispEdges"/><rect fill="#252525" x="24.4" y="123.5" width="634.4" height="24.65" shape-rendering="crispEdges"/><rect fill="#333333" x="658.8" y="123.5" width="24.4" height="24.65" shape-rendering="crispEdges"/><rect fill="#333333" x="683.2" y="123.5" width="134.2" height="24.65" shape-rendering="crispEdges"/><rect fill="#333333" x="817.4" y="123.5" width="24.4" height="24.65" shape-rendering="crispEdges"/><rect fill="#252525" x="841.8" y="123.5" width="24.4" height="24.65" shape-rendering="crispEdges"/><rect fill="#252525" x="0" y="147.9" width="24.4" height="24.65" shape-rendering="crispEdges"/><rect fill="#252525" x="24.4" y="147.9" width="366" height="24.65" shape-rendering="crispEdges"/><rect fill="#252525" x="390.4" y="147.9" width="268.4" height="24.65" shape-rendering="crispEdges"/><rect fill="#333333" x="658.8" y="147.9" width="24.4" height="24.65" shape-rendering="crispEdges"/><rect fill="#333333" x="683.2" y="147.9" width="134.2" height="24.65" shape-rendering="crispEdges"/><rect fill="#333333" x="817.4" y="147.9" width="24.4" height="24.65" shape-rendering="crispEdges"/><rect fill="#252525" x="841.8" y="147.9" width="24.4" height="24.65" shape-rendering="crispEdges"/><rect fill="#252525" x="0" y="172.3" width="24.4" height="24.65" shape-rendering="crispEdges"/><rect fill="#252525" x="24.4" y="172.3" width="817.4" height="24.65" shape-rendering="crispEdges"/><rect fill="#252525" x="841.8" y="172.3" width="24.4" height="24.65" shape-rendering="crispEdges"/><rect fill="#252525" x="0" y="196.7" width="24.4" height="24.65" shape-rendering="crispEdges"/><rect fill="#252525" x="24.4" y="196.7" width="12.2" height="24.65" shape-rendering="crispEdges"/><rect fill="#252525" x="36.6" y="196.7" width="793" height="24.65" shape-rendering="crispEdges"/><rect fill="#252525" x="829.6" y="196.7" width="12.2" height="24.65" shape-rendering="crispEdges"/><rect fill="#252525" x="841.8" y="196.7" width="24.4" height="24.65" shape-rendering="crispEdges"/><rect fill="#252525" x="0" y="221.1" width="24.4" height="24.65" shape-rendering="crispEdges"/><rect fill="#252525" x="24.4" y="221.1" width="12.2" height="24.65" shape-rendering="crispEdges"/><rect fill="#252525" x="36.6" y="221.1" width="793" height="24.65" shape-rendering="crispEdges"/><rect fill="#252525" x="829.6" y="221.1" width="12.2" height="24.65" shape-rendering="crispEdges"/><rect fill="#252525" x="841.8" y="221.1" width="24.4" height="24.65" shape-rendering="crispEdges"/><rect fill="#252525" x="0" y="245.5" width="24.4" height="24.65" shape-rendering="crispEdges"/><rect fill="#252525" x="24.4" y="245.5" width="12.2" height="24.65" shape-rendering="crispEdges"/><rect fill="#252525" x="36.6" y="245.5" width="24.4" height="24.65" shape-rendering="crispEdges"/><rect fill="#252525" x="61" y="245.5" width="146.4" height="24.65" shape-rendering="crispEdges"/><rect fill="#252525" x="207.4" y="245.5" width="475.8" height="24.65" shape-rendering="crispEdges"/><rect fill="#42a5f5" x="683.2" y="245.5" width="24.4" height="24.65" shape-rendering="crispEdges"/><rect fill="#42a5f5" x="707.6" y="245.5" width="73.2" height="24.65" shape-rendering="crispEdges"/><rect fill="#42a5f5" x="780.8" y="245.5" width="24.4" height="24.65" shape-rendering="crispEdges"/><rect fill="#252525" x="805.2" y="245.5" width="24.4" height="24.65" shape-rendering="crispEdges"/><rect fill="#252525" x="829.6" y="245.5" width="12.2" height="24.65" shape-rendering="crispEdges"/><rect fill="#252525" x="841.8" y="245.5" width="24.4" height="24.65" shape-rendering="crispEdges"/><rect fill="#252525" x="0" y="269.9" width="24.4" height="24.65" shape-rendering="crispEdges"/><rect fill="#252525" x="24.4" y="269.9" width="12.2" height="24.65" shape-rendering="crispEdges"/><rect fill="#252525" x="36.6" y="269.9" width="24.4" height="24.65" shape-rendering="crispEdges"/><rect fill="#252525" x="61" y="269.9" width="622.2" height="24.65" shape-rendering="crispEdges"/><rect fill="#42a5f5" x="683.2" y="269.9" width="24.4" height="24.65" shape-rendering="crispEdges"/><rect fill="#42a5f5" x="707.6" y="269.9" width="73.2" height="24.65" shape-rendering="crispEdges"/><rect fill="#42a5f5" x="780.8" y="269.9" width="24.4" height="24.65" shape-rendering="crispEdges"/><rect fill="#252525" x="805.2" y="269.9" width="24.4" height="24.65" shape-rendering="crispEdges"/><rect fill="#252525" x="829.6" y="269.9" width="12.2" height="24.65" shape-rendering="crispEdges"/><rect fill="#252525" x="841.8" y="269.9" width="24.4" height="24.65" shape-rendering="crispEdges"/><rect fill="#252525" x="0" y="294.3" width="24.4" height="24.65" shape-rendering="crispEdges"/><rect fill="#252525" x="24.4" y="294.3" width="12.2" height="24.65" shape-rendering="crispEdges"/><rect fill="#252525" x="36.6" y="294.3" width="24.4" height="24.65" shape-rendering="crispEdges"/><rect fill="#252525" x="61" y="294.3" width="524.6" height="24.65" shape-rendering="crispEdges"/><rect fill="#252525" x="585.6" y="294.3" width="97.6" height="24.65" shape-rendering="crispEdges"/><rect fill="#42a5f5" x="683.2" y="294.3" width="24.4" height="24.65" shape-rendering="crispEdges"/><rect fill="#42a5f5" x="707.6" y="294.3" width="73.2" height="24.65" shape-rendering="crispEdges"/><rect fill="#42a5f5" x="780.8" y="294.3" width="24.4" height="24.65" shape-rendering="crispEdges"/><rect fill="#252525" x="805.2" y="294.3" width="24.4" height="24.65" shape-rendering="crispEdges"/><rect fill="#252525" x="829.6" y="294.3" width="12.2" height="24.65" shape-rendering="crispEdges"/><rect fill="#252525" x="841.8" y="294.3" width="24.4" height="24.65" shape-rendering="crispEdges"/><rect fill="#252525" x="0" y="318.7" width="24.4" height="24.65" shape-rendering="crispEdges"/><rect fill="#252525" x="24.4" y="318.7" width="12.2" height="24.65" shape-rendering="crispEdges"/><rect fill="#252525" x="36.6" y="318.7" width="793" height="24.65" shape-rendering="crispEdges"/><rect fill="#252525" x="829.6" y="318.7" width="12.2" height="24.65" shape-rendering="crispEdges"/><rect fill="#252525" x="841.8" y="318.7" width="24.4" height="24.65" shape-rendering="crispEdges"/><rect fill="#252525" x="0" y="343.1" width="24.4" height="24.65" shape-rendering="crispEdges"/><rect fill="#252525" x="24.4" y="343.1" width="12.2" height="24.65" shape-rendering="crispEdges"/><rect fill="#252525" x="36.6" y="343.1" width="793" height="24.65" shape-rendering="crispEdges"/><rect fill="#252525" x="829.6" y="343.1" width="12.2" height="24.65" shape-rendering="crispEdges"/><rect fill="#252525" x="841.8" y="343.1" width="24.4" height="24.65" shape-rendering="crispEdges"/><rect fill="#252525" x="0" y="367.5" width="24.4" height="24.65" shape-rendering="crispEdges"/><rect fill="#252525" x="24.4" y="367.5" width="817.4" height="24.65" shape-rendering="crispEdges"/><rect fill="#252525" x="841.8" y="367.5" width="24.4" height="24.65" shape-rendering="crispEdges"/><rect fill="#252525" x="0" y="391.9" width="24.4" height="24.65" shape-rendering="crispEdges"/><rect fill="#252525" x="24.4" y="391.9" width="817.4" height="24.65" shape-rendering="crispEdges"/><rect fill="#252525" x="841.8" y="391.9" width="24.4" height="24.65" shape-rendering="crispEdges"/><rect fill="#252525" x="0" y="416.3" width="24.4" height="24.65" shape-rendering="crispEdges"/><rect fill="#252525" x="24.4" y="416.3" width="207.4" height="24.65" shape-rendering="crispEdges"/><rect fill="#42a5f5" x="231.8" y="416.3" width="24.4" height="24.65" shape-rendering="crispEdges"/><rect fill="#42a5f5" x="256.2" y="416.3" width="341.6" height="24.65" shape-rendering="crispEdges"/><rect fill="#42a5f5" x="597.8" y="416.3" width="24.4" height="24.65" shape-rendering="crispEdges"/><rect fill="#252525" x="622.2" y="416.3" width="219.6" height="24.65" shape-rendering="crispEdges"/><rect fill="#252525" x="841.8" y="416.3" width="24.4" height="24.65" shape-rendering="crispEdges"/><rect fill="#252525" x="0" y="440.7" width="24.4" height="24.65" shape-rendering="crispEdges"/><rect fill="#252525" x="24.4" y="440.7" width="207.4" height="24.65" shape-rendering="crispEdges"/><rect fill="#42a5f5" x="231.8" y="440.7" width="24.4" height="24.65" shape-rendering="crispEdges"/><rect fill="#42a5f5" x="256.2" y="440.7" width="341.6" height="24.65" shape-rendering="crispEdges"/><rect fill="#42a5f5" x="597.8" y="440.7" width="24.4" height="24.65" shape-rendering="crispEdges"/><rect fill="#252525" x="622.2" y="440.7" width="219.6" height="24.65" shape-rendering="crispEdges"/><rect fill="#252525" x="841.8" y="440.7" width="24.4" height="24.65" shape-rendering="crispEdges"/><rect fill="#252525" x="0" y="465.1" width="24.4" height="24.65" shape-rendering="crispEdges"/><rect fill="#252525" x="24.4" y="465.1" width="207.4" height="24.65" shape-rendering="crispEdges"/><rect fill="#42a5f5" x="231.8" y="465.1" width="24.4" height="24.65" shape-rendering="crispEdges"/><rect fill="#42a5f5" x="256.2" y="465.1" width="341.6" height="24.65" shape-rendering="crispEdges"/><rect fill="#42a5f5" x="597.8" y="465.1" width="24.4" height="24.65" shape-rendering="crispEdges"/><rect fill="#252525" x="622.2" y="465.1" width="219.6" height="24.65" shape-rendering="crispEdges"/><rect fill="#252525" x="841.8" y="465.1" width="24.4" height="24.65" shape-rendering="crispEdges"/><rect fill="#252525" x="0" y="489.5" width="24.4" height="24.65" shape-rendering="crispEdges"/><rect fill="#252525" x="24.4" y="489.5" width="817.4" height="24.65" shape-rendering="crispEdges"/><rect fill="#252525" x="841.8" y="489.5" width="24.4" height="24.65" shape-rendering="crispEdges"/><rect fill="#252525" x="0" y="513.9" width="24.4" height="24.65" shape-rendering="crispEdges"/><rect fill="#252525" x="24.4" y="513.9" width="817.4" height="24.65" shape-rendering="crispEdges"/><rect fill="#252525" x="841.8" y="513.9" width="24.4" height="24.65" shape-rendering="crispEdges"/><rect fill="#252525" x="0" y="538.3" width="24.4" height="24.65" shape-rendering="crispEdges"/><rect fill="#252525" x="24.4" y="538.3" width="817.4" height="24.65" shape-rendering="crispEdges"/><rect fill="#252525" x="841.8" y="538.3" width="24.4" height="24.65" shape-rendering="crispEdges"/><rect fill="#252525" x="0" y="562.7" width="24.4" height="24.65" shape-rendering="crispEdges"/><rect fill="#252525" x="24.4" y="562.7" width="817.4" height="24.65" shape-rendering="crispEdges"/><rect fill="#252525" x="841.8" y="562.7" width="24.4" height="24.65" shape-rendering="crispEdges"/><rect fill="#252525" x="0" y="587.1" width="24.4" height="24.65" shape-rendering="crispEdges"/><rect fill="#252525" x="24.4" y="587.1" width="817.4" height="24.65" shape-rendering="crispEdges"/><rect fill="#252525" x="841.8" y="587.1" width="24.4" height="24.65" shape-rendering="crispEdges"/><rect fill="#252525" x="0" y="611.5" width="866.2" height="24.65" shape-rendering="crispEdges"/><rect fill="#333333" x="0" y="635.9" width="36.6" height="24.65" shape-rendering="crispEdges"/><rect fill="#333333" x="36.6" y="635.9" width="61" height="24.65" shape-rendering="crispEdges"/><rect fill="#333333" x="97.6" y="635.9" width="622.2" height="24.65" shape-rendering="crispEdges"/><rect fill="#333333" x="719.8" y="635.9" width="12.2" height="24.65" shape-rendering="crispEdges"/><rect fill="#333333" x="732" y="635.9" width="24.4" height="24.65" shape-rendering="crispEdges"/><rect fill="#333333" x="756.4" y="635.9" width="97.6" height="24.65" shape-rendering="crispEdges"/><rect fill="#333333" x="854" y="635.9" width="12.2" height="24.65" shape-rendering="crispEdges"/>
    <g class="terminal-1630073799-matrix">
    <text class="terminal-1630073799-r1" x="866.2" y="20" textLength="12.2" clip-path="url(#terminal-1630073799-line-0)">
</text><text class="terminal-1630073799-r2" x="24.4" y="44.4" textLength="292.8" clip-path="url(#terminal-1630073799-line-1)">Anki&#160;Community&#160;Deck&#160;Sync</text><text class="terminal-1630073799-r3" x="536.8" y="44.4" textLength="73.2" clip-path="url(#terminal-1630073799-line-1)">&#160;Help&#160;</text><text class="terminal-1630073799-r3" x="695.4" y="44.4" textLength="122" clip-path="url(#terminal-1630073799-line-1)">&#160;Settings&#160;</text><text class="terminal-1630073799-r1" x="866.2" y="44.4" textLength="12.2" clip-path="url(#terminal-1630073799-line-1)">
</text><text class="terminal-1630073799-r1" x="866.2" y="68.8" textLength="12.2" clip-path="url(#terminal-1630073799-line-2)">
</text><text class="terminal-1630073799-r1" x="866.2" y="93.2" textLength="12.2" clip-path="url(#terminal-1630073799-line-3)">
</text><text class="terminal-1630073799-r3" x="24.4" y="117.6" textLength="244" clip-path="url(#terminal-1630073799-line-4)">Your&#160;community&#160;decks</text><text class="terminal-1630073799-r1" x="866.2" y="117.6" textLength="12.2" clip-path="url(#terminal-1630073799-line-4)">
</text><text class="terminal-1630073799-r3" x="683.2" y="142" textLength="134.2" clip-path="url(#terminal-1630073799-line-5)">&#160;↻&#160;Refresh&#160;</text><text class="terminal-1630073799-r1" x="866.2" y="142" textLength="12.2" clip-path="url(#terminal-1630073799-line-5)">
</text><text class="terminal-1630073799-r4" x="24.4" y="166.4" textLength="366" clip-path="url(#terminal-1630073799-line-6)">•&#160;Last&#160;refreshed&#160;5&#160;minutes&#160;ago</text><text class="terminal-1630073799-r1" x="866.2" y="166.4" textLength="12.2" clip-path="url(#terminal-1630073799-line-6)">
</text><text class="terminal-1630073799-r1" x="866.2" y="190.8" textLength="12.2" clip-path="url(#terminal-1630073799-line-7)">
</text><text class="terminal-1630073799-r5" x="24.4" y="215.2" textLength="12.2" clip-path="url(#terminal-1630073799-line-8)">╭</text><text class="terminal-1630073799-r5" x="36.6" y="215.2" textLength="793" clip-path="url(#terminal-1630073799-line-8)">─────────────────────────────────────────────────────────────────</text><text class="terminal-1630073799-r5" x="829.6" y="215.2" textLength="12.2" clip-path="url(#terminal-1630073799-line-8)">╮</text><text class="terminal-1630073799-r1" x="866.2" y="215.2" textLength="12.2" clip-path="url(#terminal-1630073799-line-8)">
</text><text class="terminal-1630073799-r5" x="24.4" y="239.6" textLength="12.2" clip-path="url(#terminal-1630073799-line-9)">│</text><text class="terminal-1630073799-r5" x="829.6" y="239.6" textLength="12.2" clip-path="url(#terminal-1630073799-line-9)">│</text><text class="terminal-1630073799-r1" x="866.2" y="239.6" textLength="12.2" clip-path="url(#terminal-1630073799-line-9)">
</text><text class="terminal-1630073799-r5" x="24.4" y="264" textLength="12.2" clip-path="url(#terminal-1630073799-line-10)">│</text><text class="terminal-1630073799-r2" x="61" y="264" textLength="146.4" clip-path="url(#terminal-1630073799-line-10)">Kaishi&#160;A1&#160;A2</text><text class="terminal-1630073799-r5" x="829.6" y="264" textLength="12.2" clip-path="url(#terminal-1630073799-line-10)">│</text><text class="terminal-1630073799-r1" x="866.2" y="264" textLength="12.2" clip-path="url(#terminal-1630073799-line-10)">
</text><text class="terminal-1630073799-r5" x="24.4" y="288.4" textLength="12.2" clip-path="url(#terminal-1630073799-line-11)">│</text><text class="terminal-1630073799-r6" x="707.6" y="288.4" textLength="73.2" clip-path="url(#terminal-1630073799-line-11)">&#160;Open&#160;</text><text class="terminal-1630073799-r5" x="829.6" y="288.4" textLength="12.2" clip-path="url(#terminal-1630073799-line-11)">│</text><text class="terminal-1630073799-r1" x="866.2" y="288.4" textLength="12.2" clip-path="url(#terminal-1630073799-line-11)">
</text><text class="terminal-1630073799-r5" x="24.4" y="312.8" textLength="12.2" clip-path="url(#terminal-1630073799-line-12)">│</text><text class="terminal-1630073799-r4" x="61" y="312.8" textLength="524.6" clip-path="url(#terminal-1630073799-line-12)">Up&#160;to&#160;date&#160;·&#160;last&#160;downloaded&#160;56&#160;minutes&#160;ago</text><text class="terminal-1630073799-r5" x="829.6" y="312.8" textLength="12.2" clip-path="url(#terminal-1630073799-line-12)">│</text><text class="terminal-1630073799-r1" x="866.2" y="312.8" textLength="12.2" clip-path="url(#terminal-1630073799-line-12)">
</text><text class="terminal-1630073799-r5" x="24.4" y="337.2" textLength="12.2" clip-path="url(#terminal-1630073799-line-13)">│</text><text class="terminal-1630073799-r5" x="829.6" y="337.2" textLength="12.2" clip-path="url(#terminal-1630073799-line-13)">│</text><text class="terminal-1630073799-r1" x="866.2" y="337.2" textLength="12.2" clip-path="url(#terminal-1630073799-line-13)">
</text><text class="terminal-1630073799-r5" x="24.4" y="361.6" textLength="12.2" clip-path="url(#terminal-1630073799-line-14)">╰</text><text class="terminal-1630073799-r5" x="36.6" y="361.6" textLength="793" clip-path="url(#terminal-1630073799-line-14)">─────────────────────────────────────────────────────────────────</text><text class="terminal-1630073799-r5" x="829.6" y="361.6" textLength="12.2" clip-path="url(#terminal-1630073799-line-14)">╯</text><text class="terminal-1630073799-r1" x="866.2" y="361.6" textLength="12.2" clip-path="url(#terminal-1630073799-line-14)">
</text><text class="terminal-1630073799-r1" x="866.2" y="386" textLength="12.2" clip-path="url(#terminal-1630073799-line-15)">
</text><text class="terminal-1630073799-r1" x="866.2" y="410.4" textLength="12.2" clip-path="url(#terminal-1630073799-line-16)">
</text><text class="terminal-1630073799-r1" x="866.2" y="434.8" textLength="12.2" clip-path="url(#terminal-1630073799-line-17)">
</text><text class="terminal-1630073799-r6" x="256.2" y="459.2" textLength="341.6" clip-path="url(#terminal-1630073799-line-18)">&#160;+&#160;Add&#160;a&#160;new&#160;community&#160;deck&#160;</text><text class="terminal-1630073799-r1" x="866.2" y="459.2" textLength="12.2" clip-path="url(#terminal-1630073799-line-18)">
</text><text class="terminal-1630073799-r1" x="866.2" y="483.6" textLength="12.2" clip-path="url(#terminal-1630073799-line-19)">
</text><text class="terminal-1630073799-r1" x="866.2" y="508" textLength="12.2" clip-path="url(#terminal-1630073799-line-20)">
</text><text class="terminal-1630073799-r1" x="866.2" y="532.4" textLength="12.2" clip-path="url(#terminal-1630073799-line-21)">
</text><text class="terminal-1630073799-r1" x="866.2" y="556.8" textLength="12.2" clip-path="url(#terminal-1630073799-line-22)">
</text><text class="terminal-1630073799-r1" x="866.2" y="581.2" textLength="12.2" clip-path="url(#terminal-1630073799-line-23)">
</text><text class="terminal-1630073799-r1" x="866.2" y="605.6" textLength="12.2" clip-path="url(#terminal-1630073799-line-24)">
</text><text class="terminal-1630073799-r1" x="866.2" y="630" textLength="12.2" clip-path="url(#terminal-1630073799-line-25)">
</text><text class="terminal-1630073799-r7" x="0" y="654.4" textLength="36.6" clip-path="url(#terminal-1630073799-line-26)">&#160;q&#160;</text><text class="terminal-1630073799-r8" x="36.6" y="654.4" textLength="61" clip-path="url(#terminal-1630073799-line-26)">Quit&#160;</text><text class="terminal-1630073799-r9" x="719.8" y="654.4" textLength="12.2" clip-path="url(#terminal-1630073799-line-26)">▏</text><text class="terminal-1630073799-r7" x="732" y="654.4" textLength="24.4" clip-path="url(#terminal-1630073799-line-26)">^p</text><text class="terminal-1630073799-r8" x="756.4" y="654.4" textLength="97.6" clip-path="url(#terminal-1630073799-line-26)">&#160;palette</text>
    </g>
    </g>
</svg>
